<svg xmlns="http://www.w3.org/2000/svg" width="256" height="256"><path fill="#1976D2" fill-opacity=".016" fill-rule="evenodd" d="M0 128.004v128.004l128.25-.254 128.25-.254.254-127.75L257.008 0H0zm.485.496c0 70.4.119 99.053.265 63.672s.146-92.98 0-128S.485 58.1.485 128.5"/><path fill="#1976D2" fill-opacity=".127" fill-rule="evenodd" d="M74.2 34.2c-.66.66-1.2 1.996-1.2 2.968 0 .973-1.776 5.403-3.947 9.845s-4.242 9.069-4.603 10.282c-.362 1.213-2.41 5.856-4.554 10.318C57.753 72.075 56 76.404 56 77.233s-1.73 4.828-3.845 8.887-4.173 8.73-4.575 10.38c-.401 1.65-2.721 7.185-5.155 12.299-2.434 5.115-4.425 9.736-4.425 10.27 0 .535-1.8 4.778-4 9.431s-4 8.928-4 9.502-1.8 4.622-4 8.998-4 8.541-4 9.256-1.625 4.663-3.611 8.772c-6.16 12.747-8.689 20.168-7.19 21.098.715.444 27.3.829 59.077.856 63.904.052 60.194.472 57.286-6.487-.859-2.057-1.562-4.323-1.562-5.036s-1.983-5.496-4.408-10.628c-2.424-5.132-4.561-10.456-4.75-11.831l-.342-2.5-21.764-.27-21.764-.269.67-2.731c.369-1.501 2.22-6.105 4.114-10.23s4.277-9.867 5.294-12.761 2.469-6.493 3.226-8l3.05-6.07c.921-1.832 1.674-3.784 1.674-4.338s1.35-3.924 3-7.489 3-6.9 3-7.412.45-.93 1-.93 1 .681 1 1.514 2.025 5.705 4.5 10.827 4.5 10.002 4.5 10.844 1.575 4.552 3.5 8.245 4.395 9.443 5.49 12.778 2.38 6.565 2.855 7.178 2.13 4.489 3.676 8.614 4.537 11.221 6.645 15.769c2.109 4.548 3.834 8.852 3.834 9.563s1.118 3.611 2.484 6.443l2.484 5.15 21.171-.01c11.643-.006 21.937-.42 22.874-.922.938-.502 2.297-3.068 3.021-5.703.724-2.634 3.26-8.84 5.636-13.79s4.322-9.803 4.325-10.785.648-2.782 1.434-4c1.252-1.941 6.447-14.063 13.592-31.715 2.539-6.273 3.669-8.893 7.932-18.396 1.676-3.735 3.047-7.248 3.047-7.808s2.025-5.265 4.5-10.456 4.5-9.863 4.5-10.383 2.025-5.45 4.5-10.957 4.5-10.464 4.5-11.017 1.759-4.565 3.908-8.918 3.65-8.174 3.334-8.49c-.823-.823-120.242-.714-120.242.109 0 .783 3.461 8.523 5.577 12.47.783 1.46 1.423 3.214 1.423 3.898s1.912 5.204 4.25 10.044l4.25 8.8 21.75.052c24.731.059 23.803-.342 19.385 8.384-1.3 2.569-3.143 6.807-4.094 9.419-2 5.49-3.164 8.223-7.437 17.457-1.707 3.69-3.104 7.302-3.104 8.028 0 .725-.614 2.207-1.365 3.291s-1.703 3.098-2.114 4.473c-.412 1.375-1.658 4.001-2.769 5.835l-2.021 3.336-2.636-5.957c-1.451-3.277-3.187-6.62-3.86-7.431s-1.522-3.006-1.887-4.878-2.328-6.829-4.362-11.015c-2.034-4.185-4.019-8.91-4.411-10.5s-2.481-6.593-4.644-11.12c-2.162-4.526-3.931-8.911-3.931-9.742s-2.025-5.522-4.5-10.422c-2.475-4.899-4.5-9.453-4.5-10.119s-1.436-4.311-3.191-8.099L119.617 33H97.509c-15.863 0-22.448.339-23.309 1.2M.204 216.75c.228 5.202.64 6.75 1.796 6.75s1.568-1.548 1.796-6.75C4.071 210.474 3.944 210 2 210s-2.071.474-1.796 6.75M6 216.393c0 4.509.406 6.549 1.378 6.922 1.563.6 3.622-1.088 3.622-2.97 0-.69 1.105-.15 2.455 1.2 4.137 4.138 5.717 3.021 5.83-4.123.038-2.432.327-4.415.642-4.407 1.884.051 2.974 2.062 3.254 6.001.264 3.711.664 4.484 2.319 4.484 1.667 0 2.083-.833 2.5-5 .383-3.829.91-5.033 2.25-5.139 1.447-.115 1.75.708 1.75 4.75 0 4.815.049 4.892 3.25 5.056 9.508.487 11.961.269 12.749-1.134.716-1.275 1.193-1.281 3.662-.047 1.561.781 3.242 1.621 3.735 1.866s.624-.637.291-1.961c-.332-1.324-.179-3.079.339-3.899.708-1.119.947-.7.959 1.675.008 1.741.577 3.356 1.265 3.587 2.38.801 4.75-.493 4.75-2.593v-2.106l1.469 2.098c1.657 2.365 5.225 3.651 6.119 2.205.364-.59 1.089-.541 1.895.128.959.796 1.712.676 2.84-.451 1.96-1.961 3.654-1.939 6.539.081 4.022 2.817 4.792.311 1.938-6.315-1.991-4.623-3.008-5.863-5.01-6.104-2.016-.243-2.835.379-4.151 3.151-.901 1.9-1.639 4.399-1.639 5.553 0 1.155-.483 2.099-1.074 2.099-.665 0-.967-2-.792-5.25.256-4.759.076-5.28-1.932-5.57-1.522-.221-2.46.344-3.001 1.807l-.787 2.127-1.862-2.057c-1.024-1.131-2.917-2.057-4.207-2.057-1.859 0-2.373.571-2.481 2.75-.117 2.355-.199 2.427-.57.502-.488-2.533-3.302-3.563-8.406-3.076-3.374.323-3.39.349-3.888 6.324-.298 3.577-.827 5.495-1.309 4.75-.445-.687-1.907-1.25-3.25-1.25S37 219.55 37 219s1.35-1 3-1q3 0 3-1.5c0-1.018-1.019-1.5-3.167-1.5-3.581 0-3.449-.766.228-1.326 1.341-.204 2.584-1.114 2.762-2.023.289-1.474-1.238-1.651-14.25-1.651-8.015 0-14.52.338-14.455.75.066.412.03 1.65-.079 2.75-.145 1.479-.348 1.614-.779.518-.959-2.444-2.991-4.018-5.189-4.018-1.879 0-2.071.593-2.071 6.393m78.187-4.643c.183.963 1.341 1.894 2.573 2.07 1.92.273 2.24.929 2.24 4.583 0 4.73.522 5.718 2.598 4.921.9-.345 1.402-2.068 1.402-4.814 0-3.436.393-4.38 2-4.8 1.799-.47 2-.03 2 4.384 0 4.312.253 4.906 2.094 4.906 1.218 0 2.302-.797 2.592-1.908.488-1.867.538-1.868 2.381-.025 4.349 4.349 12.813 3.093 13.065-1.938.107-2.143.246-1.982.75.871.464 2.627 1.117 3.5 2.618 3.5 1.466 0 2.089-.777 2.332-2.913l.332-2.914 2.168 2.695c2.464 3.064 8.927 4.23 10.817 1.952 1.244-1.498 4.975-1.758 6.401-.446.523.481 3.927 1.163 7.566 1.515 5.052.488 6.89.309 7.775-.758 1.281-1.543-.362-2.631-3.973-2.631-1.635 0-1.918-.738-1.918-5 0-4.667-.167-5-2.5-5-2.369 0-2.503.3-2.564 5.75-.063 5.64-.089 5.692-1.393 2.75a185 185 0 0 1-2.415-5.75c-1.491-3.779-5.134-3.703-7.412.154-.944 1.598-1.716 3.821-1.716 4.941s-.45 2.315-1 2.655c-.621.384-1-1.49-1-4.941 0-5.263-.133-5.559-2.5-5.559-2.034 0-2.5.491-2.5 2.635v2.635l-2.073-2.635c-1.222-1.554-3.068-2.635-4.5-2.635-1.977 0-2.43.509-2.442 2.75l-.014 2.75-1.259-2.5c-1.763-3.501-8.918-4.094-12.2-1.011l-2.252 2.115-.536-2.052c-.489-1.87-1.305-2.052-9.204-2.052-7.714 0-8.63.192-8.333 1.75M164 217c0 5.428.324 7 1.441 7 .793 0 1.723-.457 2.068-1.015s2.171-1.66 4.057-2.448c8.133-3.398 6.29-10.537-2.721-10.537H164zm15.333-4.798c-3.848 8.375-4.39 10.141-3.41 11.121.706.706 1.611.503 2.882-.647 1.019-.922 2.682-1.676 3.695-1.676s2.676.754 3.695 1.676c2.755 2.494 4.291.438 2.443-3.269-.796-1.599-1.836-4.257-2.311-5.907-1.135-3.942-5.414-4.736-6.994-1.298m9.134.735c.835 1.615 1.972 3.216 2.526 3.559s1.007 1.945 1.007 3.563c0 2.274.453 2.941 2 2.941 1.1 0 2-.649 2-1.443 0-.793.99-3.12 2.199-5.17l2.2-3.728.736 2.755c.406 1.515.491 3.398.189 4.183-.644 1.68 1.502 4.629 2.789 3.833.488-.301.901-1.534.919-2.739.03-2.109.085-2.121 1.454-.312.959 1.266 2.146 1.689 3.643 1.298 1.44-.377 2.648.004 3.438 1.083 2.227 3.046 4.122-.016 4.022-6.499-.077-4.975-.364-5.8-2.101-6.049-1.369-.197-2.608.72-3.879 2.872l-1.867 3.161-2.443-3.123c-1.988-2.539-3.168-3.122-6.322-3.122-2.627 0-4.216.565-4.927 1.75-.999 1.667-1.113 1.667-2.41 0-.748-.963-2.56-1.75-4.026-1.75-2.627 0-2.643.042-1.147 2.937M219 216.393c0 6.953.276 7.279 6 7.093 9.362-.303 10.06-.473 10.863-2.646.79-2.135.816-2.137 2.218-.184 3.516 4.896 6.919 3.261 6.919-3.325 0-3.383.311-4.149 1.5-3.693 1.01.388 1.5 1.975 1.5 4.862 0 2.995.479 4.47 1.59 4.896 2.57.986 3.41-.234 3.41-4.955 0-3.281.392-4.441 1.5-4.441.833 0 1.5-.889 1.5-2 0-1.834-.667-2-8.031-2-6.3 0-8.159.331-8.621 1.536-.53 1.381-.826 1.381-2.934 0-1.584-1.038-4.787-1.536-9.879-1.536H219zm7-2.393-3.5.737 3.75.131c2.063.073 3.75-.318 3.75-.868s-.113-.941-.25-.868-1.825.463-3.75.868m-178 1c0 .55.9 1 2 1s2-.45 2-1-.9-1-2-1-2 .45-2 1m59.59.627c-.714 1.861 1.008 4.373 2.997 4.373 1.615 0 3.32-3.005 2.695-4.75-.652-1.818-4.96-1.532-5.692.377M168 215c0 .55.675 1 1.5 1s1.5-.45 1.5-1-.675-1-1.5-1-1.5.45-1.5 1m55.474 4.043c-.335.541.955.957 2.967.957 1.957 0 3.558-.338 3.557-.75-.003-1.126-5.842-1.311-6.524-.207"/><path fill="#1976D2" fill-opacity=".53" fill-rule="evenodd" d="M74.57 35.203c-.863 1.233-1.581 2.929-1.595 3.77-.014.84-1.814 5.122-4 9.516s-3.976 8.669-3.977 9.5-2.026 5.442-4.5 10.246S56 77.63 56 78.436s-2.025 5.713-4.5 10.904S47 99.238 47 99.8s-2.019 5.224-4.487 10.361c-2.468 5.136-4.493 9.911-4.5 10.611S36.2 125.624 34 130s-4 8.571-4 9.324-1.733 4.925-3.851 9.272-4.431 9.704-5.141 11.904c-1.17 3.621-3.969 9.782-7.498 16.5-.722 1.375-1.47 3.85-1.661 5.5l-.349 3 58.25.258c48.211.214 58.25.027 58.25-1.085 0-2.537-3.932-13.315-7.464-20.463-1.945-3.935-3.536-7.805-3.536-8.6 0-4.616.031-4.61-23.107-4.61-12.041 0-21.888-.113-21.882-.25.07-1.616 3.565-10.863 6.4-16.934 1.974-4.227 3.589-8.19 3.589-8.808 0-.617 2.025-5.37 4.5-10.561 2.475-5.192 4.497-10.004 4.492-10.693C90.981 101.855 97.294 89 98.238 89c.454 0 1.076.787 1.384 1.75s2.318 5.707 4.469 10.543c2.15 4.836 3.909 9.398 3.909 10.139s1.78 4.952 3.956 9.358 4.272 9.293 4.659 10.86 2.657 7.015 5.044 12.106c2.388 5.091 4.341 9.767 4.341 10.392 0 .624 1.8 4.94 4 9.592 2.2 4.651 4 8.918 4 9.483s1.186 3.671 2.637 6.902l2.636 5.875h43.633l2.047-4.627c1.126-2.545 2.047-5.214 2.047-5.932 0-.717 2.025-5.465 4.5-10.55s4.5-9.822 4.5-10.525 1.796-5.011 3.991-9.573c2.196-4.561 3.996-8.828 4-9.483.005-.654 2.034-5.495 4.509-10.756s4.5-10.083 4.5-10.714c0-1.24 3.913-10.1 7.055-15.976 1.07-2 1.945-4.278 1.945-5.063s1.184-3.873 2.631-6.864 3.718-8.314 5.045-11.829c1.328-3.516 3.969-9.713 5.869-13.772S239 52.38 239 51.675s1.767-4.934 3.926-9.399c3.23-6.68 3.659-8.221 2.418-8.697-1.914-.735-114.689-.768-116.6-.034-1.125.432-.727 1.896 1.918 7.06 1.836 3.584 3.338 6.977 3.338 7.539 0 .563 2.109 5.486 4.687 10.94L143.374 69h43.843l-.639 2.546c-.352 1.401-2.426 6.359-4.609 11.019s-3.971 9.027-3.974 9.704-2.028 5.418-4.5 10.536S169 112.539 169 113.063s-1.771 4.874-3.936 9.667l-3.937 8.714-4.551-9.472c-2.502-5.21-4.556-10.044-4.563-10.742s-1.752-4.974-3.877-9.5c-2.126-4.527-4.444-10.03-5.152-12.23s-2.526-6.475-4.04-9.5-3.467-7.643-4.341-10.262c-.873-2.619-3.166-7.956-5.095-11.86s-3.522-7.836-3.54-8.738c-.017-.902-1.705-4.79-3.75-8.64l-3.718-7-21.18-.27c-20.953-.266-21.196-.245-22.75 1.973M.441 211.294c-.308.803-.421 3.649-.251 6.324.239 3.742.725 4.943 2.11 5.206 1.602.304 1.767-.344 1.5-5.912-.289-6.023-2.064-8.992-3.359-5.618m5.955.117c-.298.776-.359 3.588-.136 6.25.294 3.512.862 4.928 2.072 5.162 1.266.246 1.668-.418 1.668-2.75 0-3.46 1.534-4.117 2.5-1.072.799 2.515 4.354 4.545 5.665 3.234.522-.522.811-3.376.642-6.342-.227-3.991-.697-5.393-1.807-5.393-.893 0-1.628 1.113-1.816 2.75-.288 2.501-2.184 4.055-2.184 1.789C13 213.886 8.974 210 7.78 210c-.463 0-1.086.635-1.384 1.411m14.062-.344c-.363.588.285 1.314 1.441 1.617 1.778.465 2.101 1.311 2.101 5.506 0 4.181.274 4.905 1.75 4.624 1.319-.25 1.825-1.501 2.055-5.073.214-3.327.736-4.741 1.75-4.741.795 0 1.445-.675 1.445-1.5 0-1.131-1.216-1.5-4.941-1.5-2.718 0-5.238.48-5.601 1.067m11.972.255c-.302.788-.41 3.625-.24 6.305.31 4.871.311 4.873 4.165 5.19 5.326.437 8.32-.96 3.724-1.738-4.156-.704-5.196-2.811-1.607-3.257 3.323-.413 3.364-2.225.059-2.638-3.604-.451-3.134-1.999.719-2.371 4.924-.474 3.887-2.272-1.51-2.618-3.423-.22-4.915.097-5.31 1.127m13.237-.655c-1.098 1.097-.765 12.333.364 12.333.568 0 1.291-.675 1.607-1.5s1.148-1.5 1.847-1.5c.698 0 1.83.675 2.515 1.5 2.354 2.837 3.495 1.607 3.739-4.029.221-5.108.045-5.603-2.315-6.5-2.95-1.121-6.79-1.272-7.757-.304m12.742.71c-.291.757-.389 3.57-.219 6.25.224 3.527.724 4.873 1.81 4.873.911 0 1.629-1.134 1.83-2.886l.329-2.886 2.936 3.214c4.083 4.471 5.405 3.608 5.405-3.525 0-4.593-.336-5.917-1.5-5.917-.893 0-1.628 1.113-1.816 2.75-.398 3.459-.735 3.437-3.837-.25-2.765-3.286-4.128-3.734-4.938-1.623m16.773 2.873c-2.747 5.846-3.513 8.75-2.308 8.75.554 0 1.286-.45 1.626-1s2.166-1 4.059-1 3.441.45 3.441 1 .675 1 1.5 1c1.887 0 1.875-.418-.172-5.967-3.122-8.462-5.152-9.156-8.146-2.783m10.485-3.583c-1.257 1.256-.666 2.194 1.583 2.513 1.92.273 2.295 1.017 2.555 5.07.388 6.052 2.195 6.237 2.195.225 0-3.934.334-4.651 2.56-5.498 1.408-.535 2.282-1.424 1.941-1.975-.686-1.11-9.779-1.391-10.834-.335m12.806.543c-.921 2.401-.093 11.318 1.027 11.053 1.361-.322 1.869-10.294.59-11.573-.699-.699-1.213-.534-1.617.52m7.162.863c-5.194 4.085-2.281 10.927 4.653 10.927 4.889 0 6.712-1.624 6.712-5.978 0-6.505-6.042-9.136-11.365-4.949m13.365 4.5c0 5.711.229 6.53 1.742 6.238 1.034-.199 1.953-1.549 2.259-3.317l.516-2.981 2.31 3.244c2.504 3.516 4.835 4.213 5.35 1.6.767-3.898-.398-11.357-1.774-11.357-.892 0-1.403 1.092-1.403 3 0 1.65-.254 3-.565 3s-1.7-1.35-3.088-3c-4.084-4.853-5.347-4.01-5.347 3.573m17.051-2.323c-2.7 6.247-3.323 8.75-2.177 8.75.554 0 1.286-.45 1.626-1s2.166-1 4.059-1 3.441.45 3.441 1 .675 1 1.5 1 1.5-.13 1.5-.288c0-.753-3.625-10.361-4.324-11.462-1.536-2.418-3.807-1.206-5.625 3m12.637-3.604c-.379.378-.688 3.312-.688 6.521V223h4.441c2.443 0 4.719-.45 5.059-1 .36-.582-.639-1-2.389-1-2.915 0-3.016-.157-3.309-5.171-.281-4.812-1.484-6.814-3.114-5.183m15.979.021c-.367.366-.667 3.291-.667 6.5 0 4.571.331 5.833 1.531 5.833.843 0 1.791-.675 2.107-1.5s1.583-1.5 2.814-1.5c2.54 0 5.548-2.859 5.548-5.272 0-3.288-8.913-6.482-11.333-4.061m14.978 1.752c-.905 1.381-1.645 3.231-1.645 4.112 0 .88-.486 2.509-1.081 3.62-1.272 2.377-.405 3.735 1.298 2.032.651-.651 2.578-1.183 4.283-1.183s3.632.532 4.283 1.183c1.848 1.848 2.287.509 1.065-3.249-2.828-8.692-5.425-10.755-8.203-6.515m8.355-1.748c0 .369.718 1.465 1.595 2.434s2.115 3.274 2.75 5.122c1.505 4.377 2.834 4.934 3.736 1.564.398-1.489 1.676-4.045 2.84-5.679 2.651-3.724.739-5.646-2.112-2.124l-1.867 2.306-2.286-2.147c-2.21-2.077-4.656-2.852-4.656-1.476m14.52.456c-.96 2.442-.169 11.412.98 11.112.55-.144 1.061-.819 1.135-1.5.074-.682.186-1.661.25-2.178.063-.516 1.018.031 2.122 1.216 1.997 2.144 4.934 2.066 5.056-.134.035-.629.485-.093.999 1.191 1.668 4.161 3.438 1.93 3.438-4.334 0-7.045-1.44-7.962-4.46-2.844l-2.207 3.741-3.337-3.948c-2.688-3.181-3.461-3.632-3.976-2.322M220 216.5v6.5h5c2.75 0 5-.45 5-1s-1.8-1-4-1c-2.889 0-4-.417-4-1.5 0-1.054 1.065-1.5 3.583-1.5 4.519 0 4.174-2.361-.41-2.813-4.337-.429-4.007-1.996.5-2.377 5.915-.499 5.43-2.81-.59-2.81H220zm11.409-5.123c-.291.757-.389 3.57-.219 6.25.354 5.564 2.922 6.93 3.8 2.022l.51-2.851 2.813 3.163c3.913 4.4 5.187 3.53 5.187-3.544 0-4.593-.336-5.917-1.5-5.917-.878 0-1.627 1.096-1.806 2.642l-.306 2.643-3.167-2.893c-3.543-3.235-4.543-3.521-5.312-1.515m14.049-.31c-.362.587.263 1.309 1.391 1.604 1.626.425 2.112 1.48 2.35 5.104.416 6.321 2.801 6.929 2.801.715 0-3.836.36-4.771 2-5.2 1.1-.288 2-1.146 2-1.907 0-1.689-9.517-1.974-10.542-.316M48 215c0 1.646.518 2.065 2.25 1.82 1.237-.176 2.25-.995 2.25-1.82s-1.013-1.644-2.25-1.82c-1.732-.245-2.25.174-2.25 1.82m59.386-.565c-1.016 2.649.482 6.565 2.511 6.565 4.811 0 5.6-7.27.847-7.817-1.798-.207-2.965.228-3.358 1.252M168 215c0 1.506.522 2.046 1.75 1.81.963-.186 1.75-1 1.75-1.81s-.787-1.624-1.75-1.81c-1.228-.236-1.75.304-1.75 1.81m-89.8.2c-1.633 1.633-1.508 2.8.3 2.8.833 0 1.5-.889 1.5-2 0-2.331-.186-2.414-1.8-.8m60.405.388c-.855 2.228-.787 2.412.895 2.412.825 0 1.5-.648 1.5-1.441 0-2.116-1.693-2.802-2.395-.971m42.395.829c0 .87.713 1.583 1.583 1.583 1.766 0 1.459-2.153-.395-2.771-.654-.218-1.188.317-1.188 1.188"/><path fill="#1976D2" fill-opacity=".981" fill-rule="evenodd" d="M75.035 35.934c-.569 1.064-1.035 2.414-1.035 3s-2.025 5.164-4.5 10.174S65 58.849 65 59.621s-2.025 5.541-4.5 10.596c-2.475 5.056-4.5 9.706-4.5 10.334s-1.8 4.825-4 9.327-4 8.766-4 9.476-2.025 5.452-4.5 10.537-4.5 9.743-4.5 10.35c0 .608-2.025 5.296-4.5 10.418s-4.5 9.86-4.5 10.53c0 .671-2.025 5.381-4.5 10.469s-4.504 9.833-4.509 10.546c-.004.713-1.797 5.012-3.982 9.554-2.186 4.541-4.256 9.379-4.6 10.75L11.783 185h58.109c31.959 0 58.108-.375 58.108-.833 0-.459-.276-1.11-.614-1.447-.337-.338-1.617-3.45-2.845-6.917-1.227-3.467-3.426-8.75-4.886-11.74S117 157.91 117 157.035c0-.874-.701-2.59-1.557-3.812-1.526-2.18-1.971-2.223-23.107-2.223-20.132 0-21.502-.115-20.828-1.75.397-.963 1.062-3.1 1.478-4.75.964-3.83 2.955-8.316 5.104-11.5.927-1.375 2.36-4.75 3.184-7.5.823-2.75 3.345-8.825 5.603-13.5s4.113-9.175 4.122-10c.028-2.54 6.455-14.53 7.509-14.008.546.271 1.723 2.521 2.617 5s3.032 7.506 4.75 11.17c1.719 3.664 3.125 7.107 3.125 7.65s1.8 4.849 4 9.567 4 9.091 4 9.719 2.025 5.333 4.5 10.455 4.5 9.982 4.5 10.799 2.025 5.761 4.5 10.987 4.5 9.866 4.5 10.312.983 3.182 2.184 6.08l2.184 5.269h42.598l2.517-4.967c1.384-2.731 2.517-5.459 2.517-6.061s1.8-4.918 4-9.592 4-9.131 4-9.905 2.025-5.536 4.5-10.584c2.475-5.047 4.514-9.9 4.531-10.784s2.042-5.645 4.5-10.581c2.458-4.935 4.469-9.611 4.469-10.391s1.8-5.223 4-9.875c2.2-4.651 4-8.924 4-9.497 0-.572 1.777-4.747 3.949-9.276 2.173-4.53 4.27-9.53 4.661-11.112.39-1.581 2.661-6.925 5.045-11.875s4.337-9.912 4.34-11.027c.003-1.116.617-2.916 1.365-4s2.298-4.111 3.444-6.723l2.084-4.75H128.055l3.473 6.919c1.909 3.805 3.472 7.391 3.472 7.968s1.912 5.104 4.25 10.06l4.25 9.012 22.329.02 22.33.021-.688 3.25c-.378 1.787-2.664 7.291-5.079 12.231C179.976 88.42 178 93.052 178 93.772s-1.8 4.983-4 9.471-4 8.754-4 9.479-1.749 5.022-3.887 9.548c-2.138 4.527-4.113 8.905-4.39 9.73-.479 1.43-9.723-16.693-9.723-19.063 0-.603-2.025-5.372-4.5-10.598S143 92.36 143 91.777s-1.805-4.877-4.012-9.542-4.303-9.663-4.66-11.108c-.356-1.445-2.334-6.227-4.395-10.627s-4.062-9.125-4.447-10.5-2.088-5.538-3.785-9.25L118.617 34H97.344c-20.009 0-21.335.115-22.309 1.934M1.607 212.582c-.96 2.5-.707 8.238.393 8.918.621.384 1-1.49 1-4.941 0-5.733-.343-6.713-1.393-3.977M7 216.5c0 3.025.45 5.5 1 5.5s1-1.35 1-3c0-3.865 2.002-3.862 4.203.006C16.022 223.96 18 222.927 18 216.5c0-3.025-.45-5.5-1-5.5s-1 1.575-1 3.5c0 3.998-1.372 4.546-3.128 1.25-1.229-2.306-3.786-4.662-5.122-4.718-.412-.018-.75 2.443-.75 5.468m15.75-4.469c1.869.752 2.25 1.671 2.25 5.437 0 2.492.45 4.532 1 4.532s1-2.003 1-4.45c0-3.184.498-4.741 1.75-5.47 1.352-.788.614-1.012-3.25-.986-3.992.026-4.547.215-2.75.937M33 216.5v5.5l4.25-.16c3.684-.139 3.817-.214 1-.563-2-.249-3.25-.966-3.25-1.865 0-.843 1.377-1.751 3.25-2.145l3.25-.682-3-.553c-4.203-.773-3.89-3.375.5-4.15 3.293-.582 3.219-.626-1.25-.75L33 211zm13.03.25c.024 4.394.271 5.337 1.05 4 1.25-2.146 3.261-2.249 4.92-.25 1.723 2.076 2.911 1.877 2.319-.387-.271-1.038-.004-2.19.594-2.559 1.756-1.086 1.248-4.398-.847-5.519-1.064-.569-3.314-1.035-5-1.035H46zM59 216.5c0 3.025.45 5.5 1 5.5s1-1.35 1-3c0-3.595 2.514-4.124 3.567-.75.758 2.427 2.195 3.71 4.183 3.735.85.01 1.25-1.743 1.25-5.485 0-3.025-.45-5.5-1-5.5s-1 1.323-1 2.941c0 3.809-1.569 4.735-3.113 1.837-1.241-2.33-3.795-4.689-5.137-4.746-.413-.018-.75 2.443-.75 5.468m17.488-3.123c-2.097 3.202-3.915 9.45-2.271 7.806 1.558-1.558 7.024-1.516 8.73.067 1.108 1.028 1.21.895.572-.75-.427-1.1-1.004-3.125-1.282-4.5-.564-2.789-2.039-5-3.336-5-.47 0-1.556 1.07-2.413 2.377m11.262-1.346c1.857.746 2.277 1.741 2.407 5.687l.157 4.782.593-4.96c.502-4.203.975-5.066 3.093-5.651 1.735-.479.818-.701-3-.726-4.247-.028-4.987.17-3.25.868m18.5.189c-1.664.803-2.25 1.951-2.25 4.407 0 2.676.581 3.622 2.987 4.866 2.648 1.369 3.386 1.378 6.5.077 2.908-1.215 3.513-1.983 3.513-4.462 0-5.027-5.385-7.475-10.75-4.888m13.443-.47c-.234.412-.343 2.747-.243 5.189.211 5.124 2.55 7.015 2.55 2.061 0-3.473 1.638-3.683 3.429-.44 3.056 5.536 5.571 4.568 5.571-2.143 0-6.198-2.101-7.299-3-1.572l-.5 3.187-2.793-3.516c-2.747-3.459-4.175-4.246-5.014-2.766m17.057 2.318c-2.848 5.036-2.37 6.603 1.865 6.108 2.337-.272 3.909.054 4.446.922 1.741 2.817 1.809.085.115-4.648-2.102-5.876-4.043-6.596-6.426-2.382M149 216.5c0 3.733.402 5.5 1.25 5.501.89.001 1.151-1.582.907-5.5-.445-7.147-2.157-7.149-2.157-.001m16 0c0 5.26 1.138 7.188 2.362 4 .316-.825 1.724-1.5 3.128-1.5 1.781 0 2.912-.789 3.742-2.61 1.021-2.24.92-2.806-.713-4-1.046-.764-3.39-1.39-5.21-1.39H165zm14.879-3.274c-.656 1.225-1.522 3.689-1.925 5.476-.661 2.934-.555 3.155 1.091 2.274 2.496-1.336 6.305-1.226 7.755.224 1.498 1.498 1.519.687.075-2.903-3.242-8.065-4.792-9.189-6.996-5.071m11.651 1.414c1.359 2.001 2.49 4.589 2.514 5.75.028 1.374.519.779 1.405-1.706.748-2.099 2.148-4.687 3.111-5.75.962-1.064 1.256-1.934.652-1.934s-1.79.987-2.635 2.193l-1.536 2.194-2.335-2.194c-3.473-3.262-3.963-2.66-1.176 1.447m11.666 1.86c.069 3.356.302 4.568.527 2.75.484-3.895 1.473-4.122 3.277-.75 1.651 3.084 2.651 3.134 5.056.25l1.877-2.25.034 2.75c.018 1.512.483 2.75 1.033 2.75s1-2.475 1-5.5c0-6.331-1.301-7.034-3.701-2-1.458 3.057-4.29 4.866-4.304 2.75-.003-.412-1.112-2.1-2.464-3.75l-2.459-3zm17.206-4.105c-.294.767-.393 3.129-.219 5.25.271 3.301.677 3.882 2.817 4.04 1.557.115 1.818-.011.693-.335-2.76-.792-1.557-3.751 1.819-4.474l2.988-.639-3.25-.119c-2.509-.091-3.25-.56-3.25-2.058 0-1.505.84-2.027 3.75-2.332l3.75-.392-4.281-.168c-2.863-.112-4.459.294-4.817 1.227M232 216.5c0 3.025.45 5.5 1 5.5s1-1.35 1-3c0-1.977.503-3 1.474-3 .811 0 2.173 1.35 3.026 3 2.566 4.961 4.5 3.887 4.5-2.5 0-3.025-.45-5.5-1-5.5s-1 1.575-1 3.5-.45 3.5-1 3.5-1-.644-1-1.432c0-1.286-4.925-5.568-6.404-5.568-.328 0-.596 2.475-.596 5.5m15.75-4.469c1.869.752 2.25 1.671 2.25 5.437 0 2.492.45 4.532 1 4.532s1-2.219 1-4.93c0-4.318.279-4.985 2.25-5.364 1.238-.239-.225-.466-3.25-.506-4.222-.056-4.977.137-3.25.831m-200.083.636c-.993.993-.806 4.129.287 4.805 1.791 1.106 6.046-.634 6.046-2.473 0-2.408-4.574-4.092-6.333-2.332M99.3 217c0 3.025.187 4.262.416 2.75s.229-3.988 0-5.5-.416-.275-.416 2.75m7.9-3.8c-1.751 1.751-1.467 5.249.577 7.098 3.909 3.538 9.443-2.935 5.705-6.673-1.92-1.92-4.605-2.102-6.282-.425m60.467-.533c-1.004 1.003-.801 4.132.312 4.82 1.37.847 5.021-1.273 5.021-2.915 0-1.952-3.895-3.343-5.333-1.905m-89.44 1.506C76.271 216.129 76.731 219 79 219c2.06 0 2.38-1.184 1.157-4.277-.555-1.405-.96-1.52-1.93-.55m59.979 1.274c-.979 2.149-.934 2.72.252 3.175 1.543.592 3.542-.249 3.542-1.49 0-.412-.585-1.55-1.3-2.528-1.21-1.655-1.382-1.597-2.494.843m42.459-.273c-.672 2.569-.069 3.826 1.835 3.826 2.075 0 2.725-1.711 1.511-3.979-1.403-2.622-2.635-2.566-3.346.153"/></svg>