<svg xmlns="http://www.w3.org/2000/svg" width="256" height="256"><path fill="#1976D2" fill-opacity=".016" fill-rule="evenodd" d="M0 128.004v128.004l128.25-.254 128.25-.254.254-127.75L257.008 0H0v128.004m.485.496c0 70.4.119 99.053.265 63.672.146-35.38.146-92.98 0-128C.604 29.153.485 58.1.485 128.5"/><path fill="#1976D2" fill-opacity=".601" fill-rule="evenodd" d="M17.054 1.728c-2.531.893-6.445 3.568-9.083 6.206C-.533 16.438 0 8.405 0 128c0 116.173-.29 110.553 6.102 118.307 1.675 2.032 5.15 4.932 7.722 6.444L18.5 255.5h219l4.645-2.73c5.318-3.127 9.432-7.646 11.599-12.741.825-1.941 1.895-4.31 2.378-5.265 1.132-2.24 1.159-215.055.026-214.356-.468.29-1.403-1.315-2.077-3.566-.743-2.478-3.084-5.95-5.934-8.8-8.596-8.596-.365-8.053-120.565-7.963C33.877.149 20.981.341 17.054 1.728m94.375 16.295c0 1.006.304 1.642.676 1.412.372-.23 1.342.598 2.155 1.839.814 1.242 4.272 3.698 7.685 5.458l6.206 3.201-3.326 1.452-3.325 1.452 5.234.081c6.291.098 10.538 3.287 12.764 9.582 1.286 3.639 1.418 3.746 1.458 1.184.05-3.193-1.289-6.176-4.212-9.388l-2.006-2.204 3.278-2.796c1.804-1.538 3.908-3.167 4.677-3.621 2.806-1.656 15.404 8.439 20.792 16.661 1.597 2.438 2.303 2.664 8.314 2.664 6.548 0 6.583.015 11.253 4.86 6.021 6.246 10.769 15.948 12.325 25.178 1.202 7.138 1.31 7.325 4.913 8.573 8.835 3.058 18.192 12.229 23.492 23.022l2.52 5.134-2.24 3.146c-1.232 1.731-1.863 3.055-1.401 2.942 2.699-.657 6.17 2.726 8.188 7.981 1.691 4.405 2.055 4.886 1.636 2.164-1.874-12.166-1.813-13.657.625-15.364 1.799-1.261 1.952-1.636.667-1.636-1.054 0-3.068-2.668-5.472-7.25-4.989-9.509-15.645-20.79-22.373-23.684-5.286-2.274-6.302-3.524-5.761-7.093l.329-2.173 2.75 2.173c1.512 1.195 2.75 1.663 2.75 1.041 0-.64.544-.805 1.25-.381 2.927 1.758-2.017-3.093-5.235-5.138-2.552-1.62-3.996-3.61-5.269-7.259-2.493-7.146-9.754-16.57-15.244-19.788-3.81-2.232-5.376-2.6-8.974-2.107-4.281.587-4.426.51-8.06-4.255-3.811-4.996-10.559-10.619-16.147-13.452-1.749-.887-3.467-2.518-3.818-3.626-.569-1.792-.805-1.848-2.143-.511-1.818 1.818-.41 1.628-14.632 1.971-10.054.243-12.103.024-14.036-1.496-2.175-1.711-2.263-1.709-2.263.051M.482 128c0 59.125.121 83.313.268 53.75.147-29.563.147-77.938 0-107.5C.603 44.687.482 68.875.482 128m79.626-76.75c.243.138 3.299 2.95 6.791 6.25l6.35 6-.559-4-.559-4 2.39 4.843C97.494 66.371 98.826 68 100.777 68c1.366 0 1.369-.191.03-1.75-2.751-3.204-3.164-4.781-.654-2.5 3.405 3.094 4.017 2.844 3.657-1.492-.27-3.263-.853-4.025-4.56-5.96-2.338-1.221-4.25-1.957-4.25-1.636 0 .321-.675.023-1.5-.662-1.197-.993-1.5-.993-1.5 0 0 .928-.342.961-1.342.131-.738-.612-1.569-.887-1.846-.609-.278.277-2.135-.177-4.126-1.009-3.044-1.272-6.066-2.105-4.578-1.263m92.392.434c-3.297.745-8.5 3.35-8.5 4.256 0 1.371 3.153 2.178 4.416 1.13 1.556-1.292 9.045.635 10.832 2.787C181.51 62.58 183.124 67 181.856 67c-.765 0-.786.381-.067 1.25.569.688 1.231 2.6 1.473 4.25.241 1.65.506-.11.588-3.912.125-5.759-.272-7.633-2.381-11.232-2.121-3.618-5.405-6.699-6.653-6.24-.174.064-1.216.319-2.316.568M161.5 55c-.34.55-.141 1 .441 1S163 55.55 163 55s-.198-1-.441-1-.719.45-1.059 1m-3.833.667c-.367.366-.667 1.321-.667 2.122 0 1.181.283 1.221 1.5.211.825-.685 1.5-1.64 1.5-2.122 0-1.036-1.384-1.161-2.333-.211M176 56c-1.282.828-1.246.972.25.985.963.008 1.75-.435 1.75-.985 0-1.22-.113-1.22-2 0m-24.419 2.649c-.848 2.21-.138 2.727 1.325.964.71-.855.81-1.67.247-2.018-.519-.321-1.226.153-1.572 1.054m-46.502 2.934c.048 1.165.285 1.402.604.605.289-.722.253-1.585-.079-1.917-.332-.332-.568.258-.525 1.312m15.549-.776-3.873.328L119.5 64c2.121 2.214 2.92 4.298 3.521 9.182.427 3.475 1.08 7.443 1.452 8.818.65 2.408.617 2.428-.899.559-.866-1.068-1.574-2.643-1.574-3.501 0-3.643-10.585-12.497-11.128-9.308-.761 4.474-.452 5.461 2.011 6.435 2.466.976 2.502 1.082.617 1.855-1.821.746-1.835.826-.157.89 1.013.038 4.613 2.883 8 6.32l6.157 6.25-.1-13.5c-.055-7.425-.167-14.239-.25-15.143-.186-2.036-1.569-2.471-6.522-2.05m13.943 1.764c-2.62 2.621-1.755 3.951.929 1.429 1.375-1.292 2.5-2.495 2.5-2.674 0-.887-2.037-.147-3.429 1.245m-20.275 2.216c1.469 1.534 3.523 4.539 4.563 6.679 1.703 3.5 1.961 3.677 2.569 1.762C122.661 69.343 117.209 62 113.09 62c-.997 0-.613.889 1.206 2.787m24.031-.537c-1.353 1.507-1.824 3.013-1.424 4.558.578 2.235.659 2.202 2.534-1 1.066-1.819 2.641-3.856 3.5-4.526 1.372-1.069 1.309-1.222-.513-1.25-1.141-.018-2.985.981-4.097 2.218m5.923-.215c-3.147 1.26-2.804 1.819 1 1.628 1.787-.09 3.171-.602 3.075-1.138-.248-1.382-1.478-1.53-4.075-.49M123.031 65.5c0 .55.436 1.675.969 2.5.533.825.969 1.05.969.5s-.436-1.675-.969-2.5c-.533-.825-.969-1.05-.969-.5m20.662 3.181c-2.589 1.073-3.629 2.043-3.25 3.031.306.798.557 2.157.557 3.018 0 1.346 1.193 1.483 8.472.969 4.66-.329 8.699-.232 8.975.215.677 1.096-8.484 2.117-12.764 1.422-1.886-.306-3.678-.153-3.982.34-.305.492.2.982 1.122 1.087.923.105 3.371.477 5.441.825 2.314.39 4.307.183 5.174-.537 2.37-1.967 8.364-.117 13.209 4.077 2.461 2.129 4.932 3.872 5.491 3.872.558 0-.369-1.165-2.061-2.589-3.957-3.329-3.88-4.103.359-3.608 2.11.246 4.317-.217 5.722-1.201 1.852-1.298 1.96-1.602.565-1.602-.948 0-1.723-.45-1.723-1s-.9-1-2-1-2 .465-2 1.032c0 .568-1.012 1.433-2.25 1.922-1.742.689-2.645.431-4-1.143-.963-1.118-1.75-1.658-1.75-1.199 0 .458-.74-.223-1.644-1.514-1.555-2.22-2.045-2.311-9-1.681-4.86.44-7.356.313-7.356-.375 0-.573.45-1.042 1-1.042s1-.477 1-1.059-.562-.768-1.25-.413c-.687.355-.125-.283 1.25-1.419 2.968-2.451 1.905-2.588-3.307-.428m5.557-.071c-.687.306-1.25 1.103-1.25 1.77 0 .826 1.993 1.198 6.25 1.166 3.438-.025 7.6.313 9.25.751 2.753.732 2.692.627-.737-1.267-3.799-2.099-11.241-3.432-13.513-2.42M167 75c-1.333.862-1.333.969 0 .969.825 0 2.175-.436 3-.969 1.333-.862 1.333-.969 0-.969-.825 0-2.175.436-3 .969m-14.349 6.136c-1.017.591-3.042.837-4.5.547-2.237-.446-3.117.124-5.633 3.644l-2.983 4.173 2.92-1.896 2.919-1.895-2.201 2.798c-2.691 3.421-1.998 4.584 1.081 1.812 4.394-3.955 5.182-3.545 1.246.648l-4 4.261 3.5-1.796c1.925-.988 7.325-2.804 12-4.036l8.5-2.24-5.309-.078c-5.705-.084-6.221-1.473-.974-2.626l3.194-.701-2.316-1.876c-2.604-2.108-4.727-2.319-7.444-.739M175.5 81c-.369.596.843 1 3 1s3.369-.404 3-1c-.34-.55-1.69-1-3-1s-2.66.45-3 1m-67.753.586c-.322.322.84 1.93 2.584 3.573l3.169 2.987-5-2.735-5-2.735 4.218 3.712c2.319 2.042 5.209 5.152 6.42 6.912l2.203 3.2-2.921-2.636c-3.294-2.973-9.424-6.32-9.412-5.14.004.427 1.816 1.809 4.026 3.071 2.21 1.262 5.423 4.187 7.139 6.5 1.717 2.313 2.778 3.305 2.359 2.205-.42-1.1-.922-3.35-1.117-5l-.354-3 2.464 3c4.066 4.948 2.796 1.215-2.086-6.134-4.107-6.182-4.209-6.467-1.031-2.866 1.942 2.2 4.332 5.575 5.312 7.5l1.955 3.841c.096.188 1.085.052 2.199-.301 1.366-.434 1.831-1.194 1.43-2.341-1.258-3.601-10.606-12.127-13.811-12.597-.789-.116-1.748-.524-2.131-.906-.849-.85-1.833-.891-2.615-.11M173 84c0 1.27 3.035 1.27 5 0 1.138-.736.716-.973-1.75-.985-1.787-.008-3.25.435-3.25.985m7 1.068-2.5.733 2.628.099c1.445.055 3.245.859 4 1.787 1.201 1.478 1.154 1.606-.378 1.032-3.231-1.211-1.79.22 2.347 2.33 4.127 2.106 6.897 2.088 2.961-.018-1.163-.622-1.87-1.526-1.571-2.009.298-.483-.371-1.168-1.487-1.522-1.116-.354-1.8-1.014-1.52-1.467.776-1.256-1.681-1.785-4.48-.965M175.5 88c2.749 1.181 4.328 1.181 2.5 0-.825-.533-2.175-.945-3-.914-.989.036-.819.347.5.914m-12.081 1.869c.295.477 2.234 1.151 4.309 1.497 4.929.822 14.524 5.416 11.772 5.636-1.62.13-1.43.421 1 1.534 1.65.756 4.125 1.385 5.5 1.398 2.283.023 2.067-.36-2.5-4.414-3.256-2.89-5.872-4.406-7.5-4.343-1.375.052-3.767-.416-5.315-1.041-3.319-1.339-8.036-1.513-7.266-.267M153 91.899c0 .495 1.912 1.093 4.25 1.33 2.338.237 5.15.78 6.25 1.206 1.1.427.65-.169-1-1.323-2.989-2.091-9.5-2.922-9.5-1.213m34.654 4.135c4.284 4.521 4.433 4.602 4.061 2.216-.44-2.826-1.522-3.987-4.765-5.118l-3.055-1.064 3.759 3.966m-14.789-.495c1.85.804 3.65 1.445 4 1.426 1.301-.073-4.424-2.894-5.865-2.89-.825.002.014.661 1.865 1.464m-22.615.492c-1.238.498-2.25 1.174-2.25 1.504 0 .538 2.246.038 5.761-1.284.82-.308 1.046.088.646 1.13-.564 1.471-.296 1.472 3.239.006 2.12-.878 4.042-1.775 4.271-1.992.845-.801-9.493-.238-11.667.636m7.444 2.608c-1.18 1.18.287 2.179 2.392 1.628 1.584-.414 1.763-.747.749-1.39-1.617-1.025-2.302-1.077-3.141-.238m20.806 2.724c4.832 4.428 11.195 7.968 13.046 7.258 1.124-.431 1.106-1.011-.102-3.433-1.167-2.34-2.585-3.206-7.199-4.398-3.16-.817-6.645-1.847-7.745-2.289-1.1-.442-.2.846 2 2.862m-19 .602c-1.414.582-.635.782 2.659.682 2.563-.077 4.138-.473 3.5-.879-1.46-.929-3.592-.861-6.159.197m2.25 2.697c.688.278 1.813.278 2.5 0 .688-.277.125-.504-1.25-.504s-1.937.227-1.25.504m-36.312 4.432c.414 1.323 1.091 7.249 1.504 13.169.413 5.919 1.05 11.063 1.417 11.429.366.367 2.54.841 4.831 1.054 2.29.214 5.085 1.033 6.21 1.821s3.049 1.433 4.277 1.433c1.751 0 2.371-.74 2.877-3.435.909-4.849-.355-6.451-2.724-3.451l-1.885 2.386 1.2-2.777c1.562-3.613-.105-5.763-2.853-3.679-1.53 1.161-1.609 1.155-.542-.042 2.601-2.918 1.318-6.686-2.075-6.095-.454.079-.553-.715-.221-1.763.39-1.229.046-2.122-.967-2.511-1.243-.477-1.347-1.026-.495-2.618.872-1.629.772-2.015-.52-2.015-1.079 0-1.496-.723-1.285-2.225.517-3.679-2.826-3.415-5.157.407l-2.023 3.318-.003-2.691c-.002-1.48-.525-3.013-1.162-3.406-.823-.509-.94-.022-.404 1.691m59.8 3.588c4.915 6.844 5.762 7.238 5.762 2.683 0-3.688-.221-3.96-4.464-5.486l-4.464-1.605 3.166 4.408m9.926-3.025c-1.133 1.223-.778 1.971 2.321 4.893 2.011 1.898 3.288 3.514 2.836 3.592-.451.078 2.208.451 5.911.829 7.399.754 9.763 2.234 12.828 8.028 1.195 2.26 1.867 2.863 1.896 1.701.149-6.082-6.891-11.7-14.664-11.7-4.371 0-5.113-.311-6.144-2.575-.645-1.416-.93-2.969-.633-3.45 1.033-1.671-2.917-2.868-4.351-1.318m-42.081 3.708c.23.2 1.542.9 2.917 1.555 2.357 1.122 2.389 1.102.559-.365-1.593-1.276-4.848-2.391-3.476-1.19m-129.519 1.928c.376.986.935 1.541 1.243 1.233.308-.307.001-1.114-.683-1.793-.988-.98-1.102-.865-.56.56m136.249-.61c.721.289 1.584.253 1.916-.079.332-.332-.258-.568-1.312-.525-1.165.048-1.402.285-.604.604m-9.639 1.189c-.969.614-.295 1.423 2.5 3.004l3.826 2.163-3-2.514c-3.436-2.881-2.814-3.214 1.8-.965l3.2 1.56-2.5-2.038c-2.752-2.243-3.841-2.469-5.826-1.21M24.528 122c-1.004 5.623-1.023 11.298-.056 16.587.549 2.999.312 4.93-.888 7.25-.899 1.74-1.41 3.163-1.135 3.163.275 0 1.186-1.328 2.025-2.95 1.814-3.507 1.945-7.548.392-12.006-.864-2.478-.834-4.509.127-8.516.694-2.894 1.055-5.884.801-6.645-.254-.761-.824.642-1.266 3.117M148 119.049c3.469 2.354 5.444 3.039 3 1.04-1.375-1.124-2.95-2.048-3.5-2.051-.55-.004-.325.451.5 1.011m-28.154 7.881c1.445 2.711 2.784 4.773 2.975 4.583.642-.643-3.699-9.513-4.656-9.513-.521 0 .235 2.218 1.681 4.93m67.27-3.262c-.198 1.991 1.047 4.349 1.989 3.767.492-.304.863-1.539.825-2.744-.068-2.102-.103-2.109-.865-.191l-.795 2-.519-2c-.286-1.1-.571-1.474-.635-.832M34.158 132c0 1.375.227 1.938.504 1.25.278-.687.278-1.812 0-2.5-.277-.687-.504-.125-.504 1.25m4.872 3.661c-.036 1.404 5.649 6.341 7.297 6.335.645-.002-.25-.871-1.989-1.932-1.739-1.06-3.638-2.746-4.22-3.746-.581-1-1.071-1.296-1.088-.657m89.985 1.089c.039 1.882 1.811 2.997 5.735 3.61 4.505.704 5.321-.146 2.679-2.789-1.57-1.569-8.443-2.24-8.414-.821M199 139.858c0 2.5 9.61 2.949 12.559.587 1.875-1.502 1.867-1.519-.243-.5-2.786 1.346-7.886 1.355-10.382.02-1.113-.596-1.934-.641-1.934-.107m-58 1.692c0 .852-.697 2.897-1.549 4.545l-1.549 2.996 4.049-2.066c4.162-2.123 4.947-3.727 2.849-5.825-1.687-1.687-3.8-1.493-3.8.35m89.086-.25c-.088 1.841 2.556 7.7 3.475 7.7.28 0-.018-.986-.664-2.192-.645-1.205-1.522-3.342-1.949-4.75-.516-1.701-.805-1.955-.862-.758M110 144.345c0 2.264 3.133 7.655 4.449 7.655 2.444 0 1.82-2.368-1.449-5.5-1.65-1.581-3-2.551-3-2.155m-77.911 9.905c2.344 4.551 8.921 12.62 12.12 14.869 2.294 1.613 1.758.809-1.772-2.655-2.785-2.734-6.315-7.106-7.845-9.717-2.824-4.818-4.624-6.614-2.503-2.497m104.196 13.666c-.665 1.064-2.238 2.132-3.497 2.373-2.041.391-2.066.453-.229.575 2.551.169 5.852-2.131 5.325-3.711-.238-.714-.863-.416-1.599.763m-17.285.977c0 .491.739 1.176 1.641 1.523 1.373.527 1.435.38.378-.893-1.44-1.735-2.019-1.916-2.019-.63m19.139 4.14c-1.298 1.082-1.893 1.967-1.321 1.967 1.009 0 4.182-2.709 4.182-3.571 0-.682-.355-.483-2.861 1.604M146.5 178c-.34.55-.178 1 .359 1 .538 0 1.694.275 2.571.611 1.166.448 1.427.18.974-1-.689-1.796-2.952-2.151-3.904-.611m7.5 4.888c0 1.19 2.316 3.112 3.75 3.112.968 0 1.085-.473.412-1.675-.935-1.671-4.162-2.785-4.162-1.437M168 202c-1.333.862-1.333.969 0 .969.825 0 2.175-.436 3-.969 1.333-.862 1.333-.969 0-.969-.825 0-2.175.436-3 .969m-19.355 11.765c-.563.911 7.001 9.235 8.391 9.235 2.041 0 .807-2.747-2.828-6.297-3.902-3.81-4.748-4.257-5.563-2.938"/><path fill="#1976D2" fill-opacity=".341" fill-rule="evenodd" d="M19.81 1.398C10.139 4.001 3.074 11.511 1.029 21.361.293 24.906.041 59.422.227 131.017.498 234.575.518 235.54 2.588 240.011c2.66 5.747 7.654 10.741 13.401 13.401 4.472 2.07 5.423 2.09 109.928 2.36 114.46.296 111.364.43 118.915-5.146 4.828-3.565 7.806-8.041 10.125-15.222 2.004-6.2 2.043-8.312 2.028-109.613-.009-57.671-.394-102.694-.872-101.94-.58.916-1.074-.104-1.533-3.168-1.307-8.716-9.627-17.015-19.354-19.304C227.117-.53 26.903-.512 19.81 1.398M130 12.906c0 .537.45 1.254 1 1.594.55.34 1 1.419 1 2.397 0 1.366-.87 1.809-3.75 1.908-2.062.071-5.37.397-7.349.724-2.949.488-4.169.117-6.75-2.055-2.983-2.51-3.151-2.542-3.151-.6 0 1.392-1.964 3.385-6.109 6.2-6.222 4.225-13.235 10.831-15 14.129-.73 1.365-.589 1.976.56 2.417.846.324 1.281 1.105.968 1.735-.314.63.892-.586 2.68-2.701 1.787-2.116 6.374-6.041 10.193-8.723 7.588-5.328 8.085-5.334 13.018-.15l2.81 2.954-2.508 3.696c-2.953 4.351-4.317 11.561-2.691 14.229.904 1.485.998 1.117.488-1.91-.415-2.463-.25-3.75.48-3.75.611 0 1.111 1.098 1.111 2.441 0 1.343.45 2.719 1 3.059 1.974 1.22.929 2.231-3.25 3.148-3.203.702-1.384.831 7.391.52 14.734-.521 31.924 2.276 29.272 4.762-1.178 1.104-7.569.131-6.844-1.042.302-.488-.576-.888-1.951-.888-2.77 0-4.339 1.543-2.374 2.336.691.278.097.542-1.32.585-3.345.103-6.733 3.772-7.504 8.127l-.611 3.452 1.952-3c1.074-1.65 3.014-3.9 4.311-5 2.048-1.737 2.001-1.563-.357 1.327-2.836 3.475-3.647 8.693-1.465 9.427.996.335.998.727.009 1.925-.683.828-.966 1.78-.63 2.117.337.336-.727 2.32-2.363 4.408-1.637 2.088-3.23 4.471-3.542 5.296-.311.825-.595-3.675-.63-10-.037-6.74.383-12.121 1.016-13 .91-1.266.991-1.227.516.25-.31.963-.368 1.75-.13 1.75.656 0 2.596-3.88 3.007-6.015.313-1.625.022-1.755-2.116-.942-1.768.672-3.111.546-4.683-.442-1.212-.761-4.454-1.67-7.204-2.02-4.745-.603-4.898-.551-3 1.01 1.906 1.568 1.789 1.619-2.5 1.1l-4.5-.544 4.5 1.416c2.475.779 5.51 2.659 6.745 4.177 3.398 4.178 2.698 4.834-.849.795-2.051-2.336-3.981-3.535-5.691-3.535-2.49 0-2.514.055-.646 1.468 2.349 1.777 1.752 1.885-2.41.434-2.088-.728-3.149-1.758-3.149-3.059 0-1.078-.419-1.702-.931-1.386-.512.317-1.214.117-1.561-.443-.346-.561-2.739-1.934-5.319-3.052-2.579-1.118-5.477-2.47-6.439-3.006-1.02-.567-1.75-.59-1.75-.056 0 .504-2.7.099-6-.9s-6-1.445-6-.992c0 .454.561 1.012 1.246 1.241.685.228 1.247 1.278 1.25 2.333.003 1.308.714 1.927 2.235 1.947 1.227.016 4.106 1.816 6.397 4 2.291 2.184 3.848 3.409 3.46 2.721-.388-.688-.433-1.25-.099-1.25.721 0 5.434 5.239 5.479 6.092.018.325-1.749 1.125-3.926 1.777-2.177.652-4.217 1.606-4.534 2.118-.333.54.647.506 2.324-.078 3.979-1.387 16.418-.66 16.968.992.335 1.005-1.06 1.13-6.436.579-5.097-.523-6.588-.412-5.793.429.589.623 4.189 1.426 8 1.785 5.992.564 6.523.764 3.929 1.48-1.65.456-5.475.662-8.5.457-3.025-.205-4.197-.172-2.604.073 1.592.244 3.531 1.08 4.308 1.857 1.216 1.216.988 1.327-1.646.801-1.682-.337-3.058-.378-3.058-.091 0 .286 2.163 1.909 4.808 3.606 2.644 1.696 5.906 4.303 7.25 5.793 1.776 1.97.67 1.468-4.058-1.842-6.673-4.671-11.898-7.09-10.528-4.873.397.642 1.916 1.684 3.375 2.314 2.501 1.079 2.338 1.176-2.847 1.688l-5.5.543 6.275 1.305c5.962 1.24 7.625 3.107 2.916 3.272-1.419.05-.782.518 1.809 1.329 4.673 1.463 5.292 1.267 3.393-1.074-1.207-1.487-1.193-1.603.107-.869 3.701 2.09 10.39 8.126 12.128 10.944l1.908 3.093-.268-3.196c-.147-1.758.132-3.182.62-3.165.489.018 1.269-.569 1.735-1.304.608-.959.851-.701.862.915.019 2.788 1.004 2.841 3.83.208 2.009-1.872 2.074-2.269.774-4.75-2.741-5.233-12.74-13.16-16.743-13.276l-2.346-.067 2.183-1.056c1.733-.837 2.893-.616 5.629 1.075C119.139 83.249 127 91.383 127 92.978c0 .562.45 1.022 1 1.022s1-.964 1-2.143c0-1.23 2.07-4.213 4.857-7 4.42-4.42 5.253-4.845 9.25-4.721 2.509.078 3.381.328 2.033.584-3.539.672-10.441 8.146-12.494 13.53-.996 2.612-2.224 4.75-2.729 4.75-.504 0-.917.675-.917 1.5 0 .833.889 1.5 2 1.5 1.603 0 2-.667 2-3.356 0-2.304 1.111-4.812 3.546-8 4.744-6.213 5.362-5.915.971.468-3.989 5.798-4.706 8.931-1.009 4.406l2.437-2.981-.537 4.481-.536 4.482 3.314-3.13c4.205-3.971 7.238-5.528 9.258-4.753 1.2.46.544 1.276-2.677 3.326-6.742 4.291-8.23 6.864-1.986 3.434 4.255-2.338 5.402-2.619 6.116-1.499.484.758 1.378 1.07 1.987.694.633-.392 1.606.41 2.272 1.872.641 1.406 1.569 2.556 2.064 2.556.494 0 .62.45.28 1-.34.55.084 1 .941 1 1.856 0 2.113 3.61.309 4.338-.687.277.507.54 2.655.583 3.781.077 3.85.019 2.177-1.83-1.647-1.821-1.627-1.942.446-2.6 2.53-.803 1.556-2.142-2.028-2.788-1.375-.247-.812-.325 1.25-.172 4.052.301 5.184-1.187 1.5-1.973-5.471-1.167-5.945-1.464-1.75-1.094 3.933.348 4.273.23 2.697-.932-1.343-.991-1.471-1.46-.5-1.839.717-.281-.497-.34-2.697-.133-2.2.208-3.213.133-2.25-.165.963-.298 1.75-.896 1.75-1.33 0-.433 1.238-.589 2.75-.346 2.341.375 2.103.057-1.602-2.139-2.394-1.419-5.544-2.612-7-2.65-2.378-.063-2.444-.158-.648-.93 2.654-1.14 5.755-1.222 5.082-.133-.295.477 1.432 1.137 3.838 1.467 4.454.611 12.979 3.6 12.275 4.304-.213.214-2.018-.293-4.009-1.125-4.618-1.929-8.301-2.061-4.905-.176 1.255.697 2.009 1.54 1.675 1.874-.334.333.357.912 1.535 1.286s4.41 2.694 7.182 5.157c5.382 4.779 8.455 6.346 12.451 6.346 1.372 0 2.256.385 1.966.855-.291.47.569 1.885 1.91 3.145s2.22 2.644 1.953 3.076c-.267.432.041 1.111.685 1.509.794.491.909.272.356-.68-.448-.773-.433-1.058.033-.635.466.424.912 1.654.992 2.733.112 1.527-.152 1.717-1.188.857-.733-.608-.319.973.919 3.514 1.237 2.541 2.603 4.621 3.035 4.623.432.002.273-.954-.353-2.124-1.455-2.718.101-3.836 5.363-3.858 5.235-.021 8.705 3.488 8.705 8.803 0 6.605-6.888 11.696-12.89 9.526-2.364-.855-2.587-1.386-2.368-5.644.145-2.796-.186-4.7-.817-4.7-.616 0-.8.942-.44 2.25.477 1.731-.107 1.385-2.53-1.5-1.732-2.062-3.644-3.75-4.248-3.75-.605 0 .325 1.469 2.065 3.265 2.282 2.354 3.005 3.871 2.594 5.443-.396 1.516.208 2.957 1.987 4.736 3.839 3.839 9.152 3.517 14.724-.893 5.177-4.096 6.586-3.753 2.278.555-3.35 3.351-8.726 4.61-14.809 3.469-2.739-.514-3.926-1.424-5.053-3.873-1.092-2.374-1.319-2.556-.878-.702 2.062 8.678 16.419 9.284 22.578.953l2.025-2.739 4.035 3.916c2.219 2.153 4.245 3.705 4.502 3.448.257-.257 1.598.877 2.981 2.52 1.382 1.642 2.754 2.745 3.049 2.45.295-.294-.267-1.423-1.248-2.508-1.895-2.093-2.166-6.373-.999-15.742.377-3.025.178-6.628-.475-8.606-1.247-3.781-.132-8.31 2.551-10.353 1.326-1.009 1.253-1.247-.562-1.822-1.147-.365-3.033-2.542-4.191-4.84-3.266-6.483-10.434-16.153-14.704-19.838-2.788-2.407-4.074-4.453-4.603-7.33-.77-4.183-7.197-11.509-10.096-11.509-.802 0-1.458-.498-1.458-1.107 0-2.763-6.436-14.162-10.629-18.825C182.54 40.582 179.47 39 172.719 39c-4.775 0-5.538-.294-6.776-2.606-1.908-3.565-11.351-12.051-16.115-14.482-2.159-1.101-4.343-3.137-4.88-4.549-.966-2.54-.982-2.543-2.71-.546-.956 1.105-2.762 2.307-4.014 2.672-1.902.554-2.452.155-3.355-2.435-1.038-2.978-4.869-6.242-4.869-4.148M.482 128c0 57.475.12 80.987.268 52.25.147-28.738.147-75.763 0-104.5C.602 47.012.482 70.525.482 128m138.774-99.28-4.244 3.529 2.945 3.354c3.793 4.321 4.822 9.541 2.74 13.906-1.675 3.513-1.38 4.491 1.355 4.491.945 0 3.936.716 6.647 1.592 4.813 1.554 5.052 1.533 10.115-.91 2.852-1.376 5.186-2.158 5.186-1.738 0 .768 9.11-1.276 11.061-2.482 1.424-.88 5.479 3.967 8.396 10.038 2.298 4.782 2.347 5.305 1.123 12-.967 5.291-1.475 6.512-2.082 5-.441-1.1-1.521-2.892-2.4-3.983-1.494-1.853-1.484-1.894.152-.627 1.572 1.217 1.75 1.071 1.75-1.439 0-1.536-.762-3.636-1.694-4.665-1.602-1.771-1.591-1.833.199-1.146 1.821.699 1.816.595-.107-2.698-1.497-2.563-2.877-3.567-5.483-3.991-1.916-.311-3.992-.881-4.614-1.265-.623-.385-2.538.484-4.258 1.931-1.719 1.446-3.054 2.237-2.966 1.757.088-.481.092-1.774.01-2.874-.149-1.974-.17-1.975-1.619-.059-1.049 1.387-1.469 1.53-1.473.5-.003-.835-1.038-.18-2.464 1.559-1.887 2.302-2.467 2.593-2.495 1.25-.038-1.841-2.036-2.519-2.036-.691 0 .582-.384.822-.854.531-.469-.29-1.36.584-1.978 1.941-.821 1.802-1.911 2.469-4.036 2.469-1.601 0-3.973.922-5.271 2.049l-2.361 2.05 3.167-1.532c3.341-1.617 15.726-3.012 14.902-1.679-.265.429 1.974 1.798 4.975 3.042 3.001 1.244 5.456 2.668 5.456 3.166 0 .497.991.904 2.201.904 2.644 0 12.507 5.797 13.277 7.802.374.975.054 1.232-1.019.821-.898-.345-1.303-.18-.952.388.336.544 1.758.989 3.159.989 1.814 0 2.388.417 1.992 1.449-.337.878.217 1.694 1.408 2.072 1.079.343 1.724 1.01 1.432 1.483-.292.472.476 1.565 1.708 2.428 2.105 1.474 2.121 1.57.267 1.6-1.952.031-1.952.048.027 1.546 1.1.833 2.042 2.056 2.094 2.718.175 2.238 2.188 6.278 3.791 7.608.876.728 1.355 1.707 1.065 2.177-.29.469.345 1.399 1.411 2.065 1.067.666 1.722 1.778 1.456 2.471-1.138 2.964 1.429 4.883 6.529 4.883 3.658 0 5.829.623 8.149 2.338 1.739 1.286 3.253 2.186 3.365 2 .111-.186 1.892-2.27 3.957-4.631l3.755-4.292-3.259-6.208c-4.624-8.805-14.841-18.846-21.813-21.435l-5.5-2.043-.664-6.581c-.926-9.172-6.189-19.834-12.881-26.093l-5.148-4.815-5.867.532c-5.683.515-5.928.436-7.785-2.495-2.948-4.657-11.595-13.096-15.842-15.462l-3.813-2.123-4.244 3.528m-17.163 8.175c-1.894 1.456-2.49 2.997-2.794 7.228-.213 2.957-.03 5.897.408 6.534.472.686 4.45 1.284 9.794 1.471 8.77.306 9.007.255 9.333-2.018.212-1.482-.061-2.088-.75-1.662-.687.425-1.084-.433-1.084-2.342 0-8.746-8.6-14.06-14.907-9.211m-46.738 3.702c-1.73.853-4.205 2.716-5.5 4.139-1.295 1.422-1.84 2.292-1.21 1.931 1.375-.787 2.651 2.033 1.662 3.673-.384.638.98-.302 3.032-2.09C76.6 45.409 77.779 45 82.706 45c3.939 0 6.239.527 7.637 1.75 1.408 1.232 1.736 1.306 1.107.25-.492-.825-.996-2.174-1.12-2.999-.685-4.538-8.894-6.404-14.975-3.404m32.458 15.086c.721.289 1.584.253 1.916-.079.332-.332-.258-.568-1.312-.525-1.165.048-1.402.285-.604.604M145.8 61.2c.933.933 1.467.933 2.4 0 .933-.933.667-1.2-1.2-1.2s-2.133.267-1.2 1.2m-41.127 3.656c.367 1.405.089 2.168-.806 2.214-.752.039-.467.457.633.93 2.852 1.226 3.726 1.174 2.895-.17-.493-.798-.168-.957 1.023-.5.96.369 2.349.67 3.087.67s2.808 1.234 4.599 2.741l3.258 2.742-1.829-2.793c-1.983-3.026-6.329-5.69-9.283-5.69-1.018 0-2.365-.515-2.994-1.144-.859-.859-1.004-.609-.583 1M48.241 72.25c-3.644 3.89-5.809 11.727-2.77 10.026 1.371-.767 6.515-9.856 6.525-11.526.008-1.412-1.647-.751-3.755 1.5m9.009-.43c-1.733.246-2.25.975-2.25 3.175 0 2.32-.796 3.299-4.25 5.227-2.971 1.658-4.153 2.923-3.927 4.202.18 1.018-1.151 3.437-3 5.451-3.02 3.291-3.049 3.378-.323.957C46.874 87.836 55.598 83 57.63 83c1.646 0 2.614-3.578 2.19-8.095-.271-2.886-.663-3.356-2.57-3.085m93.75.152c-1.871.578-1.242.748 2.5.674 2.75-.054 6.35.231 8 .634l3 .731-3-1.46c-3.273-1.594-6.62-1.778-10.5-.579M168 72c0 .55.702 1 1.559 1s1.281-.45.941-1c-.34-.55-1.041-1-1.559-1s-.941.45-.941 1m32.773 2.91c.235 1.6 1.17 3.175 2.077 3.5a41.1 41.1 0 0 1 2.9 1.174c2.068.964 1.415-1.235-1.339-4.507-3.234-3.844-4.184-3.888-3.638-.167m-70.247 1.04c-1.688 3.264-2.192 9.792-.537 6.963 1.017-1.74 3.021-9.913 2.43-9.913-.202 0-1.054 1.328-1.893 2.95m-49.799 1.985c-.302 1.154.088 2.164.965 2.5C84.08 81.352 88 81.081 88 80c0-.55-.627-1-1.393-1s-1.652-.675-1.969-1.5c-.819-2.135-3.311-1.857-3.911.435M167 77.583c-1.395.774-1.837 1.38-1 1.37.825-.009 2.374-.677 3.441-1.485 2.407-1.82.921-1.75-2.441.115m-7.077 3.641 3.423 2.191-2.923 1.247-2.923 1.248 3.219.045c1.771.025 4.938.941 7.039 2.036 2.1 1.095 6.146 2.092 8.99 2.215 2.845.124 4.743.49 4.22.814-.524.324 1.792 3.179 5.146 6.345 3.354 3.165 6.384 5.471 6.732 5.122.348-.348-1.828-2.962-4.836-5.81-3.009-2.847-5.479-5.627-5.49-6.177-.011-.55-1.37-1.131-3.02-1.29-4.695-.455-8.594-2.249-13.881-6.389-2.684-2.101-5.834-3.813-7-3.804-1.77.014-1.556.377 1.304 2.207m8.645 1.093c.727 1.894 4.914 4.043 6.583 3.378.777-.309.42-.571-.842-.616-3.255-.117-3.917-2.079-.701-2.079 3.56 0 2.818-.567-1.843-1.41-2.975-.538-3.625-.39-3.197.727m-82.009 1.215c-1.068.807-1.46 1.468-.873 1.468.588 0 1.629-.675 2.314-1.5 1.557-1.876 1.067-1.866-1.441.032M78 84c.825.533 2.4.945 3.5.914l2-.055-2-.859c-1.1-.473-2.675-.884-3.5-.914-1.333-.049-1.333.052 0 .914m5.208 7.126c-2.36 1.168-4.136 2.28-3.946 2.47.617.617 10.738-2.952 10.738-3.787 0-1.356-2.287-.913-6.792 1.317m58.197 2.124L139.5 95.5l2.25-1.905c1.238-1.048 2.25-2.06 2.25-2.25 0-.8-.805-.209-2.595 1.905m15.345.412c.688.278 1.813.278 2.5 0 .688-.277.125-.504-1.25-.504s-1.937.227-1.25.504M29.489 100.45c-1.917 2.997-4.009 6.597-4.648 8-.639 1.402-1.765 2.55-2.502 2.55-1.68 0-1.718 1.221-.089 2.85 1.792 1.792 1.982 29.872.221 32.719-1.086 1.755-1.021 2.231.425 3.134.937.585 3.42 3.998 5.516 7.583 2.097 3.585 5.877 8.474 8.4 10.866 2.523 2.391 3.992 3.561 3.265 2.598-.957-1.266-.995-1.75-.14-1.75.649 0 .86-.52.468-1.155-.812-1.313-.671-1.235 6.553 3.627 2.9 1.951 6.345 3.817 7.657 4.146 2.499.627 3.079 1.835 1.385 2.882-.55.34-1 1.604-.999 2.809.001 3.252 5.27 13.791 9.043 18.089 4.195 4.777 12.519 9.58 16.624 9.593 2.592.007 3.577.692 5.41 3.759 1.232 2.063 3.366 4.975 4.741 6.472 2.273 2.474 2.613 2.57 3.722 1.053 1.016-1.389.663-2.48-2.101-6.499-1.827-2.656-3.584-5.656-3.905-6.666-.426-1.342-1.941-1.998-5.623-2.434-10.81-1.28-18.296-8.474-22.161-21.296l-2.251-7.466-6.286-3.112c-7.402-3.664-15.398-11.801-19.733-20.081l-2.946-5.627 2.619-2.797c1.96-2.093 2.414-3.3 1.803-4.797-.449-1.1-.796-3.125-.771-4.5.036-1.977.15-2.09.543-.542 1.227 4.829 8.62 11.375 11.523 10.204.821-.332.713-.531-.315-.583-1.743-.088-6.091-4.407-7.815-7.763-2.501-4.868-.51-12.53 4.095-15.755 1.343-.941 4.347-1.561 7.565-1.561 3.303 0 5.101-.381 4.718-1-.34-.55-2.601-1-5.024-1-3.527 0-5.161.648-8.191 3.248-4.152 3.564-5.453 5.232-6.435 8.252-.629 1.934-.654 1.93-.75-.115-.055-1.163.851-3.324 2.013-4.802l2.113-2.686-4.022-4.771-4.023-4.77 3.325-6.224c1.829-3.424 3.818-6.817 4.419-7.541.869-1.048.55-1.213-1.565-.809-1.835.351-2.438.154-1.95-.637.39-.63.451-1.145.137-1.145-.315 0-2.141 2.452-4.058 5.45m70.038-4.102c1.085.742 3.51 1.646 5.389 2.009 1.88.363 5.03 1.859 7 3.324l3.584 2.665-2.5-2.805c-2.876-3.227-9.363-6.487-12.973-6.519-2.381-.021-2.4.027-.5 1.326M70.5 98.068c-1.837 1.177-2.382 1.924-1.405 1.927.877.003 2.41-.895 3.405-1.995 2.199-2.429 1.882-2.419-2 .068m.653 3.291c-3.063.819-4.772 1.975-5.79 3.917-1.269 2.422-1.261 2.826.061 3.333 1.643.631 5.694-1.933 9.5-6.011 2.673-2.864 2.508-2.918-3.771-1.239m120.867 4.165c.696.838 1.471 1.318 1.723 1.067.693-.694-.716-2.591-1.924-2.591-.664 0-.588.574.201 1.524m-45.27.556c-1.889 1.101-2.406 3.92-.719 3.92.568 0 1.291-.675 1.607-1.5.317-.825 1.454-1.5 2.528-1.5s1.674-.45 1.334-1c-.779-1.26-2.499-1.231-4.75.08m-38.742.894c-1.188.751-1.238 1.196-.25 2.184.683.683 1.276 1.04 1.319.792.042-.247.227-1.237.411-2.2.389-2.03.452-1.997-1.48-.776m13.257-.159c-.679.431-1.354 2.562-1.5 4.735-.146 2.172-.856 4.574-1.579 5.336-.929.979-1.003 1.697-.25 2.45 1.679 1.679 1.239 3.054-.512 1.601-2.999-2.489-3.359.92-.626 5.915l2.542 4.648-2.643-2.399-2.643-2.399.936 3.262c.514 1.794.839 3.734.722 4.312-.131.648 1.751.962 4.912.82 4.933-.222 5.107-.14 4.66 2.196-.363 1.901.044 2.564 1.876 3.054 4.186 1.121 12.664.736 13.138-.596.244-.687.27.076.058 1.698-.56 4.282-2.817 7.213-8.074 10.485l-4.644 2.89 4.525.679c6.783 1.017 9.025.36 11.542-3.384 2.936-4.368 4.282-9.332 4.289-15.816.005-4.085-.501-5.746-2.359-7.75-1.3-1.404-2.913-2.552-3.583-2.552-.67 0-1.022-.562-.782-1.25.241-.687 1.092-1.138 1.891-1 1.039.178 1.394-.606 1.246-2.75-.114-1.65.005-3 .265-3 .259 0 2.577 1.237 5.15 2.75 2.573 1.513 5.725 2.838 7.006 2.946 2.035.172 2.161-.009 1-1.437-1.155-1.421-1.086-1.543.533-.935 1.444.542 1.722.335 1.239-.924-.455-1.186-.198-1.46.954-1.018 1.214.466 1.431.147.944-1.388-.472-1.488-.171-2.002 1.185-2.026 1.749-.03 1.75-.083.014-1.399-1.349-1.023-1.475-1.498-.5-1.889.842-.337.683-.55-.447-.601-.963-.043-1.75.423-1.75 1.036 0 .674-1.009.454-2.553-.557-2.476-1.623-2.655-1.582-6.034 1.385-4.116 3.613-6.73 3.87-8.833.867-.844-1.204-1.833-1.89-2.199-1.524-.367.366-.222 1.239.321 1.94 1.195 1.542 2.408 4.774 1.792 4.774-.243 0-1.141-1.35-1.994-3s-1.975-3-2.492-3c-.517 0-.009 1.579 1.129 3.508 1.689 2.862 1.776 3.396.472 2.896-.878-.338-1.38-.965-1.114-1.395.266-.431-.183-1.335-.996-2.01-.933-.775-1.259-2.109-.881-3.613.361-1.44.159-2.386-.51-2.386-.609 0-1.108-.914-1.108-2.031 0-2.59-1.93-3.326-5.328-2.035-1.708.65-2.672.665-2.672.041 0-1.162-3.982-1.273-5.735-.16m-49.911 1.727c-3.941 1.727-7.354 5.974-7.354 9.152 0 1.333.427 2.16.95 1.837.847-.524 10.385-12.65 9.792-12.449-.133.044-1.658.702-3.388 1.46m110.766 1.208c1.371 1.513 3.728 4.438 5.238 6.5 3.261 4.456 4.234 4.664 4.925 1.051.761-3.982-.823-7.295-3.508-7.336-1.251-.02-3.4-.679-4.775-1.465-3.897-2.227-4.606-1.756-1.88 1.25M104 109c0 .55.477 1 1.059 1s.781-.45.441-1-.816-1-1.059-1-.441.45-.441 1m68-.633c0 .202 1.8 1.558 4 3.014 2.2 1.456 4 2.184 4 1.618 0-.565-1.463-1.92-3.25-3.01-3.073-1.873-4.75-2.446-4.75-1.622m-44.921 2.216c.048 1.165.285 1.402.604.605.289-.722.253-1.585-.079-1.917-.332-.332-.568.258-.525 1.312M96.5 113c-1.044 1.689.608 3.204 2.863 2.627 1.949-.499 1.917-.376-.363 1.391-2.776 2.151-2.059 2.607 1.316.836l2.184-1.145-2 2.282-2 2.283 3.223-1.649c3.003-1.536 3.18-1.535 2.584.018-.565 1.471-.262 1.444 2.568-.229l3.209-1.895-2.873-.744c-1.581-.41-3.694-1.652-4.697-2.76-1.945-2.149-4.995-2.664-6.014-1.015m49.293.262c1.969.629 3.654.687 4.19.145.535-.541-.794-.966-3.293-1.052l-4.19-.146 3.293 1.053m4.207 5.135c0 .257 1.463 1.492 3.25 2.746 2.306 1.617 2.838 1.766 1.832.513-1.431-1.782-5.082-4.124-5.082-3.259m31.177 2.103c.665 1.65 1.774 3.684 2.464 4.521.689.836 1.738 2.636 2.329 4 1.036 2.387 1.057 2.367.554-.521-.492-2.828-.393-2.771 1.723 1l2.245 4 .328-3.388c.486-5.034-.559-8.112-2.756-8.112-1.043 0-2.072.525-2.286 1.166-.403 1.21-1.239.503-4.328-3.666-1.356-1.83-1.38-1.745-.273 1m-136.807.94c-1.721.75-3.495 1.969-3.942 2.711-.639 1.063-.506 1.104.63.196.793-.635 3.017-1.835 4.942-2.669 1.925-.833 3.05-1.534 2.5-1.557-.55-.024-2.408.57-4.13 1.319M107 121c-.901.582-1.025.975-.309.985.655.008 1.469-.435 1.809-.985.767-1.242.421-1.242-1.5 0m41.5 2c2.076 1.65 3.924 3 4.106 3 1.073 0-1.148-3.125-3.155-4.44-4.172-2.734-4.871-1.675-.951 1.44m-82.879.75c-1.058 3.599-1.823 9.25-1.253 9.25.875 0 4.632-7.673 4.632-9.46 0-2.119-2.745-1.948-3.379.21M194 124c.825.533 1.95.969 2.5.969s.325-.436-.5-.969c-.825-.533-1.95-.969-2.5-.969s-.325.436.5.969m-125.551 4.468c-1.889 4.521-1.843 9.658.107 12.091 1.442 1.799 1.514 1.537.978-3.559-.318-3.025-.149-6.963.374-8.75 1.257-4.29.369-4.157-1.459.218m171.411-.774c1.275 2.431 3.14 3.928 3.14 2.52 0-.497-.965-1.761-2.146-2.809-2.13-1.892-2.137-1.89-.994.289m-63.101-.12c-.408.408-.252 1.332.346 2.052.598.721 1.689 3.237 2.424 5.592.982 3.145 1.348 3.618 1.378 1.782.051-3.142-3.153-10.422-4.148-9.426m-138.755 6.099c-.01 5.474 9.097 11.108 13.664 8.453 1.549-.901 1.287-1.07-1.695-1.096-4.186-.036-7.437-2.104-10.055-6.397-1.668-2.736-1.911-2.857-1.914-.96m37.075.91c.048 1.165.285 1.402.604.605.289-.722.253-1.585-.079-1.917-.332-.332-.568.258-.525 1.312m111.671.994c-.412.416-.736 1.919-.72 3.34.027 2.266.158 2.364 1.068.802 1.138-1.957.853-5.354-.348-4.142m5.311 6.173c1.325 1.512 2.753 3.178 3.174 3.7.426.529.765.196.765-.75 0-1.939-3.414-5.7-5.174-5.7-.646 0-.09 1.238 1.235 2.75m-81.997.631c-1.521 2.842-.758 5.883 2.603 10.369 2.018 2.693 3.069 3.233 6.134 3.15 2.034-.055 4.824-.46 6.199-.9 2.038-.653 1.621-.819-2.25-.9-3.561-.075-4.75-.484-4.75-1.635 0-1.247.392-1.325 2.086-.419 1.147.614 2.347.855 2.666.535.32-.32.091-.581-.509-.581-2.408 0-7.198-5.243-7.82-8.56-.752-4.006-2.548-4.443-4.359-1.059M50 145c-3.46.728-3.466.738-.5.853 1.65.064 3.675-.32 4.5-.853 1.665-1.076 1.112-1.076-4 0m172.97 7.774c-5.763 10.889-11.642 16.284-22.596 20.736l-5.342 2.171 2.455 2.307c2.434 2.287 2.493 2.291 7.013.565 4.625-1.766 12.792-7.645 15.47-11.137.886-1.156.336-.924-1.387.584-1.97 1.724-2.997 2.11-3.306 1.244-.246-.691-.972-.942-1.612-.558-.869.52-.882.331-.051-.744 7.88-10.203 13.102-18.559 12.176-19.486-.193-.192-1.462 1.751-2.82 4.318m-34.939-2.274c0 .55.436 1.675.969 2.5.533.825.969 1.05.969.5s-.436-1.675-.969-2.5c-.533-.825-.969-1.05-.969-.5m-54.031 2-2.5 1.429 2.643.036c1.454.019 2.902-.64 3.219-1.465.709-1.85-.127-1.85-3.362 0m2.032 14.143c-.039 2.631-1.777 3.357-8.032 3.357-5.773 0-8-.726-8-2.607 0-1.935-1.65-1.747-2.427.277-.997 2.599 1.231 3.298 10.555 3.315 9.598.017 11.979-1.141 9.387-4.567-1.414-1.869-1.452-1.863-1.483.225m4.965 2.363c-1.515 3.659-3.664 4.968-10.997 6.698l-5.5 1.298 6.296-.49c7.986-.623 9.559-1.502 10.984-6.146 1.428-4.654.936-5.51-.783-1.36m34.082-.423c.048 1.165.285 1.402.604.605.289-.722.253-1.585-.079-1.917-.332-.332-.568.258-.525 1.312M80 169.941c0 .518.445 1.216.989 1.552.566.35.734-.051.393-.941-.665-1.732-1.382-2.049-1.382-.611m34 .868c0 2.364 3.982 5.191 7.25 5.147l3.25-.044-3.987-1.419c-2.192-.781-4.555-2.198-5.25-3.148-.695-.95-1.263-1.191-1.263-.536m-69.596 7.811c.846 3.55 3.371 7.123 6.891 9.751 3.818 2.851 4.337 1.426.917-2.516-1.601-1.845-3.541-4.672-4.312-6.281-1.967-4.111-4.407-4.777-3.496-.954M99 178c-.589 1.1-.845 2-.57 2s.981-.9 1.57-2c.589-1.1.845-2 .57-2s-.981.9-1.57 2m6-.559c0 .857.45 1.559 1 1.559s1-.423 1-.941-.45-1.219-1-1.559c-.55-.34-1 .084-1 .941m39 .059c-1.025 1.235-.94 1.5.476 1.5 4.548 0 11.524 5.747 11.524 9.493 0 .326-2.087 2.823-4.637 5.55-3.9 4.17-4.31 4.957-2.578 4.957 2.673 0 9.482-7.87 8.862-10.242-.253-.967-.052-1.758.447-1.758 1.892 0 .794-2.939-1.844-4.937a136.628 136.628 0 0 1-5.085-4.073c-2.779-2.369-5.454-2.552-7.165-.49m-31.797 2.354c-2.324 1.473.928 2.871 5.547 2.384 5.007-.528 5.525-1.733 1.125-2.613-4.04-.808-5.095-.772-6.672.229m52.775 9.116c1.164 1.633 2.626 3.285 3.25 3.671.624.386-.125-.951-1.665-2.97-3.343-4.382-4.603-4.94-1.585-.701M133 194c0 .55.648 1 1.441 1s1.719-.45 2.059-1c.34-.55-.309-1-1.441-1-1.132 0-2.059.45-2.059 1m53.888 3.636c-3.324 3.561-8.724 6.139-14.493 6.917-4.378.59-5.083 1.045-6.67 4.304-.975 2.003-3.084 5.166-4.684 7.027l-2.91 3.384-4.106-3.515c-4.229-3.619-14.817-8.132-17.753-7.567-.964.186 1.141 1.74 5.038 3.718 3.683 1.869 7.257 4.084 7.943 4.922.99 1.209.715 1.177-1.333-.155-1.419-.923-2.881-1.376-3.25-1.008-.368.369-.67.07-.67-.663 0-.733-.249-1.084-.554-.779-.305.304.369 2.067 1.496 3.916 2.449 4.017 2.593 6.655.524 9.609-1.219 1.739-2.163 2.065-4.589 1.579-2.782-.556-3.023-.397-2.715 1.782.257 1.823 1.052 2.471 3.338 2.72 1.65.18 3.427.742 3.95 1.25.522.508 1.744.923 2.715.923 2.316 0 8.558-5.521 9.397-8.312.924-3.072 6.422-8.631 7.954-8.043 1.92.736 8.986-1.421 11.608-3.545l2.314-1.873-2.469.322c-1.358.177-3.914.893-5.681 1.591-4.241 1.677-4.804.849-2.304-3.389 1.808-3.064 2.659-3.558 6.807-3.957 5.605-.538 11.936-4.396 15.846-9.654 1.488-2.002 2.345-3.318 1.903-2.925-.442.393-1.582.298-2.533-.212-1.309-.7-2.314-.301-4.119 1.633m-75.669 3.02c-.182 2.62-.559 3.068-2.219 2.634-1.935-.506-2-.031-2 14.534 0 8.96-.405 15.308-1 15.676-1.812 1.12-1.043 2.5 1.393 2.5 1.316 0 2.652-.675 2.969-1.5.316-.825 1.195-1.5 1.952-1.5.757 0 2.187-.896 3.178-1.991 1.747-1.93 1.722-2.053-.817-4.05-2.566-2.019-2.625-2.337-2.928-15.76-.169-7.534-.407-12.279-.528-10.543m55.448 1.529c1.23 1.359 1.99 1.473 3.929.589 3.447-1.57 2.975-2.274-1.525-2.274-3.62 0-3.809.132-2.404 1.685m-98.934-.061c.679.684 1.486.991 1.793.683.308-.308-.247-.867-1.233-1.243-1.425-.542-1.54-.428-.56.56M83.5 202c.34.55 1.604.993 2.809.985 1.781-.013 1.91-.197.691-.985-1.97-1.273-4.287-1.273-3.5 0m51.066-.034c-1.195.426-1.516.947-.842 1.363.6.371 2.105.3 3.344-.158 1.606-.595 1.848-.986.842-1.364-.775-.292-2.28-.22-3.344.159m-59.742 10.695c1.447 2.716 6.654 5.886 11.006 6.699 4.556.851 3.717-1.186-1.181-2.87-2.08-.715-4.652-2.087-5.715-3.05-1.064-.962-1.934-1.4-1.934-.973 0 .428-.749.16-1.664-.595-1.502-1.239-1.552-1.162-.512.789m64.176-.283c0 .207.787.995 1.75 1.75 1.586 1.243 1.621 1.208.378-.378-1.307-1.666-2.128-2.195-2.128-1.372m-14.5 2.219c4.603.749 12.277.847 11.847.153-.256-.412-3.476-.689-7.156-.614-3.68.075-5.791.283-4.691.461"/><path fill="#1976D2" fill-opacity=".545" fill-rule="evenodd" d="M22.344 1.041C13.172 2.856 6.749 7.937 2.804 16.5L.5 21.5.207 124c-.202 70.601.046 104.474.795 108.841 2.091 12.184 9.586 19.872 21.525 22.079 3.936.728 38.623 1.075 106.407 1.064 81.632-.012 101.663-.273 106.392-1.386 9.58-2.254 17.199-9.99 19.789-20.095 1-3.901 1.299-27.585 1.358-107.503.041-56.375-.056-92.08-.217-79.344l-.292 23.157-3.232-1.03c-6.699-2.135-12.286-5.427-16.581-9.772-3.501-3.542-4.279-3.991-3.688-2.127.413 1.3.827 2.87.92 3.49.505 3.356 6.036 14.485 6.926 13.935.635-.393.778.021.372 1.079-.362.944-.252 1.465.245 1.158.497-.307 1.878 1.019 3.07 2.948 2.593 4.195 6.148 4.659 9.754 1.271l2.379-2.235-.315 4.978-.314 4.978-5.28 1.893c-2.905 1.042-5.112 2.062-4.906 2.268.206.206 2.301-.305 4.656-1.136 5.512-1.945 6.03-1.907 6.03.442 0 1.405-1.052 2.245-3.75 2.994-2.062.573-4.312 1.044-5 1.047-.687.003-1.25.629-1.25 1.391 0 2.207 2.698 8.02 3.127 6.735.213-.639 1.734-1.266 3.38-1.391 2.839-.217 3.009-.015 3.296 3.937.243 3.33-.058 4.261-1.5 4.634-1.659.431-1.663.477-.053.584.963.064 1.75.791 1.75 1.616 0 1.026-1.029 1.5-3.257 1.5-3.254 0-3.257.004-3.007 4.75.186 3.542.015 4.241-.673 2.75-.507-1.1-.954-3.463-.993-5.25-.038-1.787-.547-3.25-1.129-3.25s-.8.419-.484.931c.317.512.118 1.213-.441 1.559-.619.383-1.022-.859-1.031-3.181-.024-5.783-1.933-7.944-2.04-2.309-.056 2.921-.338 3.86-.804 2.676-.396-1.003-.927-1.715-1.18-1.581-.254.134-1.442-.282-2.64-.923-1.888-1.01-2.458-.814-4.25 1.465-1.182 1.503-2.071 4.108-2.071 6.069 0 3.067.264 3.403 2.446 3.117 1.705-.224 3.521.722 6 3.124 1.955 1.895 3.554 3.807 3.554 4.249 0 .442-1.912.811-4.25.819-2.338.009-4.838.388-5.556.844-.718.456-1.572 3.399-1.896 6.542-.499 4.832-.262 6.157 1.537 8.589l2.126 2.876-2.17.317c-2.05.299-7.528 7.748-7.712 10.487-.044.643 2.284 1.936 5.171 2.873 5.668 1.838 7.42 2.925 6.065 3.762-.473.292-3.324-.669-6.337-2.137L225.5 162.5l-7.125 7.045c-4.813 4.758-7.362 8.118-7.852 10.352-.852 3.876-7.661 11.103-10.463 11.103-1.207 0-3.33 1.984-5.617 5.25-2.023 2.887-5.294 6.504-7.268 8.036-1.975 1.533-4.543 4.683-5.707 7-2.489 4.956-8.272 8.673-13.531 8.698-3.925.018-6.444 2.211-11.31 9.845-4.345 6.816-11.326 8.946-16.723 5.103-4.105-2.923-3.904-5.932.396-5.932 4.055 0 5.7-1.519 5.7-5.266 0-4.358-1.43-6.227-8.755-11.443l-6.729-4.791 4.099-.301c5.174-.379 13.664 3.251 19.109 8.171l3.974 3.59 3.122-3.885c1.717-2.137 3.889-5.493 4.826-7.458 1.594-3.343 1.596-3.693.029-5.424-2.063-2.279-2.215-3.886-.21-2.222 2.776 2.304 9.588.259 14.386-4.319 5.754-5.49 15.38-18.47 14.615-19.707-.332-.537-1.093-.676-1.69-.307-.647.4-.797.206-.373-.482.405-.655-.5-2.258-2.095-3.713l-2.808-2.561 4.301 2.725 4.3 2.726 3.2-3.821c1.759-2.101 4.35-6.038 5.758-8.749 2.247-4.328 2.719-4.735 3.878-3.339.726.875 1.367 3.374 1.424 5.554l.104 3.964 3.352-3.221c1.844-1.772 5.16-6.249 7.369-9.949l4.016-6.729-3.233-4.082-3.233-4.082-2.693 2.58c-3.279 3.141-8.149 4.658-12.385 3.857-4.964-.939-6.548-2.116-8.212-6.102-1.439-3.446-7.446-10.126-7.446-8.28 0 .452.675 1.381 1.5 2.066 2.003 1.662 1.896 2.977-.25 3.1-1.11.063-.84.353.739.792 1.369.381 3.506 2.203 4.75 4.048 2.633 3.907 2.86 5.227.761 4.422-1.803-.692-1.887.043-.336 2.954 1.066 2.001 1.019 2.065-.565.758-1.147-.947-1.53-2.213-1.139-3.771.429-1.707-.131-3.065-2.056-4.99l-2.645-2.645-1.857 2.416c-2.347 3.052-2.345 3.609.017 4.872 1.055.565 2.264 2.494 2.687 4.286l.769 3.258.629-3c.596-2.846.652-2.781 1.088 1.25.254 2.337.224 4.243-.066 4.235-1.397-.041-2.997-1.944-5.836-6.944-2.914-5.132-3.152-5.319-3.967-3.114-.861 2.327-.878 2.321-2.159-.773-.711-1.715-1.011-3.849-.668-4.743 1.051-2.738-1.295-9.251-4.011-11.139-1.403-.975-4.017-2.994-5.809-4.487-3.764-3.134-8.576-5.245-8.576-3.76 0 .536-.787 1.011-1.75 1.054-1.045.047-1.247.282-.5.583.687.278 1.25.965 1.25 1.528 0 .563-.675.765-1.5.448-.825-.316-1.5-.155-1.5.358 0 1.234 3.56 3.11 4.369 2.302.347-.347.631.174.631 1.158 0 1.383-.304 1.536-1.342.675-.738-.612-1.617-.839-1.952-.503-.672.672-3.687-1.996-3.737-3.307-.018-.451-1.255-1.685-2.75-2.741l-2.719-1.919 2.424 2.669c3.113 3.429.978 3.46-3.491.051-3.433-2.618-4.447-2.285-2.151.707.67.873 1.668 1.451 2.218 1.284 1.368-.416 5.017 2.444 4.183 3.278-.369.369-1.573-.146-2.677-1.144-2.439-2.208-2.537-1.433-.351 2.794 1.584 3.065 1.578 3.137-.145 1.708-1.665-1.382-1.742-1.314-1.035.913 1.083 3.411.828 15.644-.372 17.887-.554 1.035-2.572 3.075-4.485 4.534l-3.477 2.653-6.099-1.563c-5.915-1.515-10.923-1.194-19.417 1.244-1.212.348-1.633.147-1.191-.569.376-.609.315-1.107-.135-1.107-.451 0-2.052-1.143-3.559-2.54-2.585-2.397-2.739-3.034-2.726-11.25.015-9.956.648-13.21 2.567-13.21 1.494 0 3.906-3.677 3.917-5.972.004-.809 1.131-2.04 2.504-2.735 2.189-1.107 1.488-1.863-1.295-1.397-1.108.185 1.032-3.622 2.548-4.532.814-.489.763-.153-.148.968-.765.944-1.167 1.941-.892 2.216.275.275 1.047-.159 1.716-.964 1.523-1.836-1.433-9.042-4.958-12.084-1.274-1.1-1.941-1.361-1.481-.58.654 1.11.419 1.243-1.078.609-4.731-2.006-7.268-1.766-9.977.943-3.914 3.914-1.853 5.468 3.529 2.663 4.166-2.171 7.046-2.74 7.019-1.385-.032 1.566-1.589 2.99-4.485 4.103-2.836 1.091-2.741 1.133 1.75.773 5.562-.445 6.21.59 1.312 2.094-2.751.844-3.9.741-5.75-.513l-2.312-1.569 1.905 2.181c1.119 1.282 3.075 2.181 4.744 2.181 4.006 0 3.305 3.063-1.591 6.954-4.703 3.737-5.29 3.812-3.046.388l1.742-2.659-3.127 2.227c-3.847 2.739-4.2 1.058-.377-1.795 1.513-1.128 2.428-2.066 2.035-2.083-.394-.018-2.306 1.365-4.25 3.072-3.266 2.867-5.125 2.897-2.285.037 1.002-1.01.901-1.127-.511-.589-1.374.523-1.616.291-1.099-1.056.555-1.447.274-1.604-1.731-.967-2.151.683-2.253.591-1.009-.909 1.744-2.101.674-3.341-1.399-1.621-1.296 1.075-1.449 1.029-.945-.285.472-1.231.101-1.444-1.727-.993-1.281.316-1.991.208-1.579-.241.413-.448 1.725-.886 2.916-.974 2.93-.216 3.392-3.501.496-3.521-1.641-.012-1.825-.229-.766-.899 1.749-1.108.712-4.086-1.424-4.086-.874 0-1.341-.403-1.037-.895.305-.493-.18-1.177-1.077-1.521-1.477-.567-1.458-.816.2-2.648 1.778-1.965 1.775-2.005-.114-1.397-1.878.603-1.877.567.056-1.072 1.1-.933 1.55-1.509 1-1.279-5.428 2.266-8.611 4.204-12 7.308-3.511 3.214-3.602 3.4-.75 1.515 4.35-2.874 4.094-1.814-1 4.14a1110.256 1110.256 0 0 0-6.837 8.067c-4.283 5.133-6.484 1.479-3.464-5.75 1.94-4.644.261-4.545-4.786.282-3.891 3.721-3.916 3.729-3.273 1 .445-1.89.251-2.76-.621-2.78-.698-.017-.448-.508.556-1.092 1.004-.584 2.078-.808 2.387-.499 1.129 1.129 6.427-3.574 5.817-5.163-.827-2.157 11.105-13.135 14.471-13.314 4.947-.263 8.751-1.51 10.775-3.534.752-.752 3.248-1.402 5.546-1.444l4.179-.076-3.5-1.266-3.5-1.266 3.25-1.684c3.972-2.057 4.209-3.086.5-2.169-2.989.739-8.458 5.392-7.727 6.574.629 1.018-4.237 2.86-9.023 3.417-3.781.44-3.891.38-2-1.098 1.952-1.526 1.943-1.546-.375-.852-1.789.535-2.18.395-1.586-.567.568-.92.301-1.09-.957-.607-.96.369-2.046.702-2.414.74-.367.039.215.416 1.295.838 1.87.731 1.847.842-.5 2.362-1.355.877-3.813 1.886-5.463 2.241l-3 .647 2.5-2.057c1.375-1.131 2.139-2.067 1.698-2.079-.44-.012.346-1.085 1.747-2.384 1.731-1.604 3.432-2.244 5.302-1.995 1.514.201 2.188.101 1.497-.224-.691-.324-1.002-1.001-.691-1.504.311-.503-.249-.929-1.244-.947-2.003-.035-2.062.028 4.318-4.59 1.427-1.033 3.161-2.414 3.853-3.069.692-.654 2.217-.939 3.389-.633 1.172.307 2.131.11 2.131-.436 0-.547 2.252-1.962 5.004-3.146 4.986-2.145 4.998-2.162 3.385-4.623-1.515-2.312-3.238-3.653-1.889-1.471 1.316 2.129-1.264.856-3.953-1.951-2.781-2.903-7.11-4.572-11.047-4.259-1.1.087-1.435-.093-.744-.401.877-.391.576-1.113-1-2.4-2.047-1.67-2.094-1.903-.512-2.519.96-.374 1.496-1.082 1.191-1.575-.715-1.157.208-1.122 4.935.191 2.766.768 4.178.766 4.95-.006 1.578-1.578 3.126-1.322 1.784.295-.916 1.104-.653 1.375 1.333 1.375 1.361 0 4.125.974 6.142 2.164 3.467 2.046 3.923 2.083 8.295.689 2.544-.811 5.479-1.616 6.522-1.789 1.64-.272 1.909-1.266 2-7.393.089-6.061.493-7.588 2.806-10.621l2.703-3.542-4.087-3.284-4.087-3.284-3.526 1.899c-4.061 2.187-14.45 12.123-16.283 15.574-.683 1.285 1.7-.409 5.296-3.764 3.596-3.356 7.467-6.345 8.603-6.642 2.488-.651 4.719 1.63 5.419 5.542.451 2.52.02 3.042-4.336 5.25-6.265 3.174-6.613 3.091-2.67-.634 3.717-3.512 2.82-3.157-6.027 2.38-5.835 3.652-6.421 3.822-8.065 2.333-2.196-1.987-7.258-3.067-10.528-2.246-1.353.34-3.855 1.791-5.559 3.226-3.119 2.624-5.823 6.535-4.348 6.288.436-.073 1.425-.08 2.198-.014 2.156.181-1.759 4.118-4.096 4.118-2.504 0-5.556 7.201-7.007 16.535-1.085 6.981-1.214 7.212-4.709 8.462-8.715 3.119-19.089 13.075-23.634 22.681l-2.631 5.562 3.836 4.114c2.11 2.264 3.896 4.257 3.969 4.43.073.173 1.823-.832 3.889-2.235 3.777-2.562 8.156-3.147 11.978-1.598 1.353.548 2.631.282 3.95-.82 1.641-1.372 1.601-1.173-.25 1.254-1.21 1.587-2.2 3.387-2.2 4 0 .687-2.144 1.115-5.587 1.115-4.881 0-5.891.354-8 2.806-1.327 1.543-2.413 3.703-2.413 4.799 0 5.3 5.782 10.916 11.2 10.88 3.14-.021 4.315-.967 5.571-4.485.589-1.65 1.114-2.325 1.165-1.5.084 1.333.202 1.333 1.064 0 .862-1.333.969-1.333.969 0 0 .825-.436 2.175-.969 3-.798 1.235-.972 1.25-.985.083-.008-.779-.251-1.181-.539-.893-.287.288-.247 1.244.091 2.125.911 2.372 7.441-6.51 7.406-10.074l-.027-2.741L61 130c-4.09 4.859-3.745 2.541.515-3.45 1.932-2.718 4.804-5.485 6.38-6.148 2.681-1.127 2.836-1.066 2.403.946-.376 1.745.131 1.489 2.676-1.348l3.14-3.5-1.557 3.2c-.856 1.761-1.557 3.843-1.557 4.628 0 .785-.675 1.987-1.5 2.672-1.75 1.453-2.237 15.574-.5 14.5.55-.34 1-.005 1 .745C72 144.348 66.945 154 65.843 154c-1.31 0-.035-3.821 2.354-7.052 1.858-2.513 1.861-2.694.109-6.019-.993-1.886-2.378-3.794-3.077-4.24-.699-.447-.974-1.293-.611-1.88.38-.614.07-.882-.729-.631-.764.241-2.522 2.619-3.908 5.285-2.787 5.367-4.449 6.363-10.781 6.467-4.472.073-8.907-1.667-11.156-4.377-1.161-1.399-1.682-1.151-4.586 2.184l-3.275 3.763 3.141 6c4.238 8.097 12.736 16.457 19.86 19.54 5.245 2.27 5.771 2.798 6.796 6.833 1.403 5.524 5.239 13.143 7.662 15.218 3.971 3.401 14.237 8.906 16.489 8.841l2.369-.067-2.25-1.085c-3.181-1.535-2.79-2.513.793-1.987 1.695.249 2.865.948 2.64 1.577-.619 1.736 3.981 10.252 7.852 14.537 3.681 4.074 3.943 4.79 2.558 6.977-.708 1.118-1.538.878-4.329-1.25-2.126-1.622-4.727-2.634-6.771-2.634-5.011 0-11.532-4.284-13.577-8.919-.952-2.156-3.673-5.544-6.047-7.529-2.375-1.985-5.466-5.567-6.868-7.96-1.887-3.22-3.359-4.514-5.659-4.974-4.11-.822-9.588-6.746-10.44-11.291-.494-2.629-2.368-5.28-6.873-9.721-3.407-3.358-7.883-9.143-9.948-12.856-2.752-4.949-4.305-6.75-5.822-6.75-2.04 0-2.042-.029-.164-2.104 1.413-1.561 1.864-3.435 1.747-7.25-.206-6.702-.21-14.98-.011-20.796.114-3.33-.38-5.247-1.741-6.75-1.594-1.762-1.648-2.1-.335-2.1.917 0 3.306-3.174 5.777-7.676 2.338-4.26 7.003-10.535 10.484-14.103 3.45-3.535 6.32-6.606 6.378-6.824.058-.219.106-1.455.106-2.749 0-3.474 4.04-8.869 8.35-11.148 2.986-1.58 4.262-3.192 6.071-7.669 2.384-5.901 7.601-13.651 11.893-17.666 3.24-3.031 9.338-5.096 13.198-4.469 2.744.445 3.878-.329 11.167-7.618 5.084-5.084 6.939-7.426 4.967-6.274-2.239 1.309-4.814 1.777-8.932 1.624-5.926-.221-12.05-2.076-11.23-3.402.252-.408.056-2.144-.436-3.858-.491-1.714-.591-3.033-.221-2.93.37.103 1.729-.398 3.021-1.113 8.915-4.936 28-9.251 44.652-10.096l14-.709-12.619-.16c-15.88-.201-27.99 1.841-43.381 7.317-1.606.572-1.705.499-.5-.367 1.02-.734 1.1-1.084.25-1.095-2.851-.035-.931-1.825 3.459-3.226C96.185 4.083 96.144-.38 87.647.19L83.015.5l1.368 2.624c1.31 2.514 1.224 2.693-2.041 4.25C78.108 9.393 77 9.416 77 7.486c0-1.742 2.03-5.641 3.5-6.721 1.37-1.006-52.976-.748-58.156.276m72.702 1.045c.614 1.147 1.36 1.841 1.659 1.543C97.529 2.805 96.209 0 94.996 0c-.739 0-.724.639.05 2.086M156 1c0 .55.45 1 1 1s1-.45 1-1-.45-1-1-1-1 .45-1 1m6 1c0 2.564.619 2.564 1.29 0 .287-1.1.115-2-.384-2-.498 0-.906.9-.906 2m17.396 4.242c2.576 5.167 4.045 6.8 8.53 9.48 4.417 2.64 5.692 3.01 6.902 2.008 1.286-1.066 1.23-1.271-.422-1.537-4.458-.719-8.447-3.901-12.371-9.868C179.748 2.846 177.519 0 177.081 0c-.439 0 .603 2.809 2.315 6.242M181 2c.589 1.1 1.295 2 1.57 2 .275 0 .019-.9-.57-2s-1.295-2-1.57-2c-.275 0-.019.9.57 2m-34 4.536c3.575.738 7.175 1.315 8 1.284 2.666-.102-8.398-2.628-11.5-2.626-1.65.001-.075.605 3.5 1.342m-26.858 6.214c-4.306 3.71-5.507 4.313-6.306 3.166-.834-1.195-.926-1.182-.588.084.595 2.232 4.813 3.86 8.502 3.282 2.59-.406 3.25-.982 3.25-2.836 0-1.281.45-2.606 1-2.946 1.177-.728 1.341-4.171.231-4.857-.423-.262-3.163 1.586-6.089 4.107M158.5 9c1.1.473 2.675.859 3.5.859.945 0 .761-.317-.5-.859-1.1-.473-2.675-.859-3.5-.859-.945 0-.761.317.5.859m-49.973 9.956c-.325.526-1.192.726-1.928.444-.76-.292-1.555.323-1.843 1.426-.486 1.856-.385 1.869 2.362.306 1.578-.898 2.872-1.969 2.876-2.382.008-1.045-.761-.936-1.467.206M.481 128c0 56.375.121 79.437.269 51.25.147-28.188.147-74.313 0-102.5C.602 48.562.481 71.625.481 128m138.698-98.684c-1.768 1.823-2.909 3.621-2.536 3.993.373.373 1.306-.219 2.074-1.315 2.719-3.882 6.527-1.302 7.694 5.213.386 2.159 1.677 4.504 3.092 5.617 1.336 1.051 2.121 2.219 1.744 2.596-.378.377.042.406.932.065.89-.342 1.959-.071 2.374.601.515.834.339.965-.553.414-.892-.551-1.068-.42-.553.414.415.672 1.408.972 2.206.666.798-.307 1.19-.135.871.381-.319.516.333 1.427 1.448 2.024S160 51.476 160 51.972c0 .497-2.812-.356-6.25-1.895-10.209-4.571-11.247-4.622-12.476-.619l-1.048 3.416 6.684 2.03 6.683 2.03 4.942-2.502c2.891-1.464 5.086-2.07 5.289-1.461.191.573.78.774 1.31.446.593-.366.513-1.138-.208-2.006-1.351-1.628-.56-1.821 1.955-.475 1.054.565 3.309.585 5.674.052 3.285-.741 4.263-.568 5.999 1.063 1.141 1.072 2.946 1.963 4.01 1.98 1.065.018 2.794 1.209 3.843 2.647l1.908 2.615-2.566-.49c-1.867-.357-2.426-.125-2.051.853.284.739 1.352 1.344 2.374 1.344 2.022 0 3.26 1.854 5.528 8.283l1.476 4.183-3.538-3.429c-2.37-2.298-3.538-2.921-3.538-1.888 0 .847.946 2.397 2.102 3.444 2.579 2.333 5.153 7.142 4.643 8.673-.207.621-1.888-1.066-3.734-3.75-2.923-4.249-3.455-4.63-4.114-2.948-.416 1.063-.788 2.945-.827 4.182-.038 1.237-.478 2.25-.976 2.25-.499 0-.671.9-.384 2 .288 1.1 1.194 2 2.014 2 .867 0 1.265.586.952 1.401-.325.847.266 1.612 1.494 1.933 1.117.292 1.748.989 1.403 1.549-.346.559.284 1.505 1.399 2.102S192 92.531 192 93.094s-.562.7-1.25.304c-.687-.396-.159.477 1.174 1.941 1.334 1.463 1.89 2.661 1.236 2.661-.675 0-.044 1.729 1.459 4 1.456 2.2 3.112 4 3.681 4 .568 0 .729.304.358.676-.372.372.306 1.722 1.507 3 1.201 1.278 1.665 2.324 1.031 2.324-.843 0-.869.624-.098 2.316.817 1.794 1.679 2.224 3.825 1.909 2.743-.403 2.762-.456 1.878-5.321-.492-2.703-1.553-6.783-2.358-9.065-2.424-6.87-.871-5.444 1.911 1.754 1.422 3.682 2.348 7.08 2.057 7.551-.291.471-.101.856.422.856.522 0 1.233 1.125 1.578 2.5.668 2.661 2.589 3.462 2.589 1.08 0-1.779-5.72-18.106-7.671-21.898-1.358-2.638-1.335-2.755.372-1.842 3.871 2.072 5.763 5.242 5.664 9.494-.069 3.004.126 3.608.699 2.166.438-1.1.827-3.325.866-4.944l.07-2.945 2.554 3.445c2.875 3.877 6.51 11.547 6.728 14.195.125 1.522.332 1.564 1.579.316 1.221-1.221 1.235-1.921.092-4.68-4.373-10.559-14.913-21.37-23.969-24.586l-4.73-1.68-.604-6.462c-1.069-11.451-9.965-26.721-17.369-29.815-2.535-1.059-4.641-1.187-8.371-.509-2.741.498-4.76.682-4.486.408.725-.725-4.689-8.231-8.579-11.894C151.754 30.496 145.136 26 143.557 26c-.641 0-2.611 1.492-4.378 3.316M210 31.941c0 .518.445 1.216.989 1.552.566.35.734-.051.393-.941-.665-1.732-1.382-2.049-1.382-.611m-62 3.075c0 1.164.448 2.952.995 3.974 1.087 2.031 12.811 9.537 13.625 8.723.937-.937-9.125-11.563-13.267-14.013-.963-.569-1.353-.189-1.353 1.316m-24.771 1.653c-1.818.732-4.229 5.776-4.229 8.847 0 5.437 1.446 6.484 8.958 6.484h6.887l1.127-3.414c1.343-4.072-.543-9.751-3.822-11.506-2.072-1.108-6.661-1.32-8.921-.411m44.539 1.499c.582.582 1.647.86 2.369.62.749-.25.295-.703-1.057-1.057-1.663-.435-2.054-.305-1.312.437m17.691 2.899c-.363.586-.445 1.281-.183 1.543s.743-.218 1.069-1.067c.676-1.762.1-2.072-.886-.476m38.541.979c-1.095.741-.691.834 1.5.344 3.677-.823 4.475-1.395 1.917-1.375-1.054.009-2.592.472-3.417 1.031M51.5 44.914c2.736 3.155 9.487 8.433 10.057 7.862.255-.255-2.353-2.648-5.796-5.316-3.444-2.669-5.361-3.815-4.261-2.546m171.257.836c1.295 1.237 3.117 2.221 4.049 2.187 1.126-.043.863-.395-.785-1.053-1.364-.544-3.186-1.528-4.049-2.187-.864-.658-.51-.184.785 1.053m-119.756 1.317c-5.054 2.785-9.034 5.742-6.472 4.808 6.052-2.207 12.485-5.469 12.896-6.541.741-1.931-.272-1.658-6.424 1.733m99.875 3.594c-6.527 5.794-8.576 8.339-5.242 6.51C199.707 56.034 210.775 45 209.842 45c-.324 0-3.459 2.547-6.966 5.661M79.577 48.125c.298.481 1.163.875 1.923.875s1.625-.394 1.923-.875c.297-.481-.568-.875-1.923-.875s-2.22.394-1.923.875M171.5 48c.34.55 1.24 1 2 1s1.66-.45 2-1c.352-.569-.509-1-2-1s-2.352.431-2 1m-59.422 7.552C104.629 57.167 101.855 59 106.859 59c1.792 0 3.004-.413 2.691-.919-1.482-2.398 10.41-2.245 15.307.198 3.104 1.548 3.498 1.523 7.658-.499 2.413-1.172 4.157-2.502 3.877-2.955-.804-1.301-17.23-.81-24.314.727m30.422.838c3.068.735 4.42 1.44 3.5 1.825-.853.357-.073.661 1.809.706 1.82.043 3.065-.316 2.767-.798-.631-1.021-8.623-3.168-11.269-3.027-.994.053.443.635 3.193 1.294M37 59.508c0 .777 10.168 5.658 10.692 5.133.272-.271-.895-1.212-2.592-2.089-4.062-2.101-8.1-3.618-8.1-3.044m35.027 2.629c-1.777 2.872-1.985 4.312-1.43 9.863.357 3.575.819 6.688 1.026 6.917 1.037 1.146 1.515-1.406 1.494-7.974-.012-3.988.443-8.12 1.011-9.183 1.831-3.42.051-3.101-2.101.377m92.41-.036c-1.615 1.705-4.062 3.537-5.437 4.07-2.727 1.058-1.94 1.917 3 3.274 2.013.552 2.208.462 1-.466-1.219-.936-1.031-1.045 1-.579 1.375.315 2.864.579 3.309.586.445.008.531.464.191 1.014s.323 1 1.472 1c1.15 0 2.35.675 2.666 1.5.317.825 1.061 1.5 1.655 1.5.593 0 2.129.988 3.414 2.195 2.679 2.517 5.293 3.204 5.293 1.391 0-.681-1.125-2.294-2.5-3.586-3.158-2.967-3.259-4.727-.153-2.693 2.278 1.494 2.331 1.462 1.841-1.102-.553-2.896-3.311-5.701-7.188-7.314-2.43-1.011-2.446-1.08-.559-2.466 1.797-1.319 1.644-1.425-2.063-1.425-3.179 0-4.609.638-6.941 3.101m11.915-1.193c-1.985.547-1.899.719 1.135 2.262 3.169 1.612 3.266 1.602 2.778-.266-.636-2.431-1.233-2.736-3.913-1.996m-67.793 1.56c2.547 1.927 4.001 1.949 2.084.032-.825-.825-2.068-1.5-2.763-1.5-.708 0-.411.644.679 1.468M218.5 64.441c-7.59 2.79-12.859 5.533-12.095 6.297.325.325 2.954-.534 5.843-1.909 2.889-1.376 7.277-3.447 9.752-4.603 5.782-2.701 4.16-2.601-3.5.215m-154.389 1.67c-.616 1.767-.945 3.388-.731 3.602.214.214.893-1.057 1.509-2.824.616-1.767.945-3.388.731-3.602-.214-.214-.893 1.057-1.509 2.824m71.761-1.361c-1.243 1.586-1.208 1.621.378.378 1.666-1.307 2.195-2.128 1.372-2.128-.207 0-.995.788-1.75 1.75m-30.621.25c.248.923 1.719 1.554 3.826 1.641 3.136.129 3.172.1.426-.34-1.648-.265-3.37-1.003-3.826-1.641-.56-.783-.698-.673-.426.34m137.359 5.193c1.137 1.269 3.074 3.992 4.306 6.051 1.877 3.138 2.541 3.582 4.106 2.744 4.117-2.203 3.165-3.654-5.5-8.384-4.758-2.598-4.886-2.616-2.912-.411M75 72.5c-.707.852-1.06 1.773-.785 2.048.275.275 1.078-.196 1.785-1.048.707-.852 1.06-1.773.785-2.048-.275-.275-1.078.196-1.785 1.048m18.5-.16c-2.51.8-3.441 1.476-2.5 1.815.825.298 2.923-.13 4.663-.951 2.516-1.186 4.024-1.273 7.376-.422 2.316.588 3.818.676 3.337.195-1.582-1.579-8.798-1.936-12.876-.637m61.25-.678c.688.278 1.813.278 2.5 0 .688-.277.125-.504-1.25-.504s-1.937.227-1.25.504m98.25-.253c0 .19.675.906 1.5 1.591.865.718 1.5.815 1.5.229 0-.558-.675-1.274-1.5-1.591-.825-.316-1.5-.419-1.5-.229M51.783 73.75C50.254 75.504 48 79.44 48 80.358c0 .269 1.35-.185 3-1.008s3-2.102 3-2.841c0-.74.273-2.057.607-2.927.812-2.116-.921-2.013-2.824.168M160 73c.825.533 1.95.969 2.5.969s.325-.436-.5-.969c-.825-.533-1.95-.969-2.5-.969s-.325.436.5.969m13.813-.317c.721.289 1.584.253 1.916-.079.332-.332-.258-.568-1.312-.525-1.165.048-1.402.285-.604.604m27.187.769c0 1.312 3.194 5.409 4.655 5.969 1.261.484 1.203.021-.319-2.586-1.673-2.864-4.336-4.942-4.336-3.383M85.646 77.049c1.18 1.203 2.632 2.021 3.227 1.819.595-.202-.371-1.187-2.146-2.187l-3.227-1.82 2.146 2.188m92.918-.756c.376.986.935 1.541 1.243 1.233.308-.307.001-1.114-.683-1.793-.988-.98-1.102-.865-.56.56m-77.564.09c0 .211.901.619 2.001.907 1.101.288 1.75.115 1.441-.383-.538-.871-3.442-1.313-3.442-.524m60 5.071c2.993 1.657 2.933 2.816-.191 3.696-2.012.567-1.907.663.819.75 1.72.055 4.806.801 6.858 1.659 2.052.857 3.982 1.307 4.289 1 .307-.308.023-.559-.631-.559s-3.141-1.8-5.528-4c-2.387-2.2-5.189-3.984-6.228-3.965-1.571.03-1.468.268.612 1.419M82.5 82l-4 .716 4.191.142c2.305.078 4.469-.308 4.809-.858.34-.55.254-.936-.191-.858-.445.078-2.609.464-4.809.858m31.5-.65c0 .231 1.18 1.193 2.623 2.139 1.443.945 2.318 1.224 1.944.62-.713-1.154-4.567-3.483-4.567-2.759M217.593 88c3.332 3.575 6.833 7.69 7.779 9.145l1.72 2.644 5.204-2.117c2.862-1.164 5.387-2.237 5.611-2.385.224-.147-.083-1.285-.682-2.527-.599-1.243-1.12-1.682-1.157-.975-.053.999-.541 1.032-2.189.15-1.628-.871-1.948-.856-1.379.065.548.887.254.946-1.129.226-2.053-1.067-5.26-1.031-7.059.081-.643.398-1.984-.285-3.038-1.547-1.037-1.243-3.653-3.835-5.813-5.76-2.16-1.925-1.201-.575 2.132 3m-136.78-2.317c.721.289 1.584.253 1.916-.079.332-.332-.258-.568-1.312-.525-1.165.048-1.402.285-.604.604m92 0c.721.289 1.584.253 1.916-.079.332-.332-.258-.568-1.312-.525-1.165.048-1.402.285-.604.604M122.5 88c.995 1.1 2.035 2 2.31 2 .275 0-.315-.9-1.31-2-.995-1.1-2.035-2-2.31-2-.275 0 .315.9 1.31 2m-30.094 1.849c.289.466-1.822 1.377-4.691 2.024-2.868.647-5.89 1.658-6.715 2.246-1.208.861-1.11.94.5.405 1.1-.365 3.35-.862 5-1.104l3-.439-3 1.464c-2.387 1.166-2.588 1.474-.982 1.51 1.11.025 3.673-1.08 5.697-2.455 2.023-1.375 4.94-2.545 6.482-2.6l2.803-.099L98 90c-3.433-1.099-6.226-1.175-5.594-.151m82.407-.166c.721.289 1.584.253 1.916-.079.332-.332-.258-.568-1.312-.525-1.165.048-1.402.285-.604.604M49.144 93.75c-1.091 2.55-1.066 2.609.34.809.834-1.068 1.516-2.305 1.516-2.75 0-1.52-.678-.81-1.856 1.941m114.082-1.171c.95.991 1.942 1.587 2.205 1.324.263-.263-.514-1.074-1.726-1.803-2.107-1.265-2.128-1.243-.479.479m-94.407.402C65.458 93.995 61.057 97 62.932 97c1.026 0 .916.511-.432 2-3.568 3.943.637 1.981 5.308-2.477 2.581-2.462 4.467-4.448 4.192-4.414-.275.035-1.707.427-3.181.872M181 92.297c0 .203 1.912 1.872 4.25 3.711 3.731 2.934 3.944 3.004 1.75.575-2.279-2.521-6-5.18-6-4.286m-91.667 5.34c0 1.564.613 1.683 2.502.486 1.029-.652.896-.96-.584-1.347-1.197-.313-1.918.01-1.918.861M16 98.393c0 1.798 2.244 2.627 6.832 2.526l3.668-.081-4-1.893c-4.8-2.271-6.5-2.416-6.5-.552m145.75-.731c.688.278 1.813.278 2.5 0 .688-.277.125-.504-1.25-.504s-1.937.227-1.25.504m-36 2.869c-.963 1.29-1.75 3.107-1.75 4.037 0 1.412.739 1.609 4.46 1.189 3.516-.396 4.819-.106 6.155 1.37.932 1.03 1.345 1.873.918 1.873-.428 0-.236.653.427 1.452.713.859.913 2.391.489 3.75-.709 2.277-.697 2.276 1.305-.171 1.756-2.148 2.735-2.44 7.502-2.241 3.873.163 5.848-.21 6.727-1.269.684-.824 1.612-1.272 2.061-.994 1.899 1.174 1.763-1.503-.203-4.002-1.714-2.18-2.778-2.634-5.437-2.324-2.833.331-3.134.171-2.105-1.118.661-.828-.268-.474-2.064.785s-4.029 3.717-4.962 5.461l-1.698 3.171-.988-3.848c-.938-3.656-1.153-3.822-4.284-3.314-2.949.479-3.359.252-3.887-2.151a242.448 242.448 0 0 0-.753-3.344c-.09-.362-.95.398-1.913 1.688m43.81-1.435c.549.89.254 1.047-1.037.551-1.444-.554-1.579-.419-.673.672.623.751.799 1.699.391 2.106-.407.408-.291.651.259.54 2.037-.411 3.5.066 3.5 1.142 0 .609-.675.848-1.5.531-.825-.316-1.5-.249-1.5.149 0 .399 2.137 1.725 4.75 2.947 3.048 1.426 5.813 3.754 7.716 6.494l2.967 4.272-3.723-3a2149.1 2149.1 0 0 1-7.106-5.757c-2.825-2.302-3.483-2.5-3.983-1.198-.329.857-.184 1.303.321.991.506-.313 1.183-.142 1.505.379 1.2 1.94-1.3 1.988-3.737.071-1.389-1.092-2.81-1.986-3.157-1.986-1.086 0 2.833 3.669 5.283 4.945 1.284.67 2.091 1.461 1.793 1.759-.299.299-2.475-.426-4.836-1.61l-4.293-2.153 2.806 2.53c2.129 1.919 2.401 2.529 1.127 2.529-1.378 0-1.455.268-.433 1.5 1.472 1.773.66 1.923-2.181.403-1.619-.866-1.957-.813-1.606.25.244.741 1.533 1.496 2.865 1.678 1.332.183 4.101 1.953 6.154 3.935 4.772 4.61 5.934 3.632 1.58-1.329-2.339-2.665-2.703-3.448-1.239-2.665 5.012 2.681 10.625 14.233 9.696 19.957-.337 2.079-.119 3.271.6 3.271.622 0 1.131-.477 1.131-1.059s.4-.812.888-.51c1.254.775 2.391-7.89 1.539-11.73-.606-2.734-.813-2.912-1.413-1.218-.559 1.576-.854 1.166-1.433-2-.402-2.19-1.846-6.008-3.209-8.483l-2.48-4.5 4.554 4.973c2.505 2.735 4.554 4.422 4.554 3.75 0-1.412 3.607-1.669 4.442-.317.308.498 1.357.698 2.331.443 1.067-.279 2.756.604 4.249 2.221l2.478 2.684-3.2-1.627c-4.174-2.122-4.998-2.056-2.925.235 1.849 2.043 5.731 2.325 6.351.461.405-1.217-4.954-5.713-7.043-5.908a78.194 78.194 0 0 1-2.351-.263c-.643-.083-2.144-1.73-3.336-3.658-1.193-1.931-2.647-3.21-3.236-2.846-.588.364-.793.215-.456-.331.977-1.581-1.763-4.701-7.749-8.824-6.423-4.423-6.714-6.183-.325-1.969 2.426 1.6 3.651 2.064 2.837 1.073-1.731-2.106-9.6-6.268-8.507-4.501M39 101.441c0 .857.45 1.559 1 1.559s1-.423 1-.941-.45-1.219-1-1.559c-.55-.34-1 .084-1 .941m43.441.114c-1.864 1.494-1.852 1.512.309.465 1.237-.6 2.25-1.3 2.25-1.555 0-.765-.519-.544-2.559 1.09m6.171-.736c-.279.451.82.624 2.441.387 1.621-.238 2.947-.607 2.947-.819 0-.762-4.893-.37-5.388.432M190.5 101c.34.55 1.068 1 1.618 1s.722-.45.382-1c-.34-.55-1.068-1-1.618-1s-.722.45-.382 1m46 .209c-5.031 1.764-6.545 3.598-5.274 6.387.668 1.466 1.91 2.379 3.185 2.341 1.944-.059 1.925-.129-.275-1.01-1.731-.694-2.089-1.279-1.335-2.187.566-.682.955-1.69.864-2.24-.091-.55 1.298-1.141 3.085-1.313 2.013-.194 3.25-.86 3.25-1.75 0-.791-.113-1.401-.25-1.358-.137.043-1.6.552-3.25 1.13m-146.231 2.484c.973.254 2.323.237 3-.037.677-.274-.119-.481-1.769-.461-1.65.02-2.204.244-1.231.498m29.428 1.057c-1.145 2.041-1.697 6.368-.737 5.775.572-.354 1.04-1.354 1.04-2.224 0-.869.787-2.178 1.75-2.909 1.614-1.225 1.619-1.331.059-1.36-.93-.018-1.88.306-2.112.718m27.331.363c-2.707 1.081-4.173 2.843-3.403 4.089.719 1.163 4.375.978 4.375-.221 0-.588 1.058-.753 2.5-.392 2.744.689 3.474-1.215 1.3-3.389-1.391-1.391-1.498-1.393-4.772-.087m-88.048 1.411c-.696.838-1.071 1.718-.835 1.955.237.236.98-.449 1.651-1.524 1.452-2.325.968-2.58-.816-.431m18.255 5.064-3.735 3.588 4.75-3.136c2.612-1.725 4.75-3.339 4.75-3.588 0-1.369-2.478-.021-5.765 3.136m114.806.47c1.197 1.681 2.348 2.886 2.558 2.677.787-.788-2.155-5.72-3.417-5.727-.902-.006-.63.958.859 3.05M249 111.5c0 1.375.388 2.5.861 2.5.474 0 .647-1.125.384-2.5s-.651-2.5-.862-2.5c-.21 0-.383 1.125-.383 2.5m-162.493 1.489c-.35.566.051.734.941.393 1.732-.665 2.049-1.382.611-1.382-.518 0-1.216.445-1.552.989m56.131 1.511c.752 1.958 5.449 1.925 7.921-.055 1.875-1.502 1.867-1.519-.244-.5-1.482.716-3.029.734-4.815.055-3.414-1.298-3.543-1.276-2.862.5m28.862 3.044c1.1.881 2.889 2.09 3.975 2.685 1.892 1.037 1.908.981.386-1.323-.875-1.323-2.664-2.532-3.976-2.685-2.348-.275-2.354-.255-.385 1.323m25 .456c.995 1.1 2.035 2 2.31 2 .275 0-.315-.9-1.31-2-.995-1.1-2.035-2-2.31-2-.275 0 .315.9 1.31 2m5.803 4.735c-.789.539-.879 1.321-.266 2.291 1.317 2.082 1.194 4.235-.193 3.378-.832-.514-.989.317-.559 2.963.356 2.194.217 3.443-.344 3.096-1.171-.723-1.214 2.558-.058 4.382.469.74 2.432 1.39 4.363 1.445 8.557.243 13.716-8.735 8.502-14.796-2.347-2.729-9.103-4.358-11.445-2.759m-142.796 1.254c-.35.566.051.734.941.393 1.732-.665 2.049-1.382.611-1.382-.518 0-1.216.445-1.552.989m83.62 1.261c.83.688 2.266 2.07 3.191 3.071.925 1.002 1.682 1.34 1.682.75 0-1.448-3.709-5.071-5.191-5.071-.752 0-.635.461.318 1.25m18.686-.567c.721.289 1.584.253 1.916-.079.332-.332-.258-.568-1.312-.525-1.165.048-1.402.285-.604.604m3.92.441c.679.684 1.486.991 1.793.683.308-.308-.247-.867-1.233-1.243-1.425-.542-1.54-.428-.56.56M104.2 126.2c-1.888 1.888-1.403 2.979.8 1.8 1.1-.589 2-1.505 2-2.035 0-1.325-1.354-1.211-2.8.235m-6.741.867c-1.076 1.741.149 2.11 1.521.457.789-.95.865-1.524.201-1.524-.584 0-1.36.48-1.722 1.067m-21.036 2.409c-1.286 1.963-1.923 4.69-1.923 8.23 0 2.912-.338 5.294-.75 5.294s-.75 1.2-.75 2.667c0 1.466.311 2.356.69 1.976.38-.38 1.275.558 1.99 2.083 1.153 2.459 1.22 2.49.597.274-1.108-3.934-.276-15.101 1.359-18.264 2.082-4.024 1.119-5.818-1.213-2.26m119.641-.976c0 .55.66 1.874 1.468 2.941.807 1.068 1.468 1.491 1.468.941 0-.55-.661-1.873-1.468-2.941-.808-1.067-1.468-1.491-1.468-.941m-4.472 1.351c-.289.468.591 2.364 1.956 4.214l2.482 3.364-.329-3.009c-.506-4.618-2.623-6.973-4.109-4.569M54.731 131.92c-.435 1.663-.305 2.054.437 1.312.582-.582.86-1.647.62-2.369-.25-.749-.703-.295-1.057 1.057m62.769 4.275c-2.85 1.616-3.498 2.938-2.839 5.797 1.329 5.774 7.213 11.014 12.339 10.988 3.552-.018 10.529-4.247 10.363-6.281-.075-.923.215-1.46.645-1.194.914.565 2.3-2.53 1.494-3.336-.299-.299-3.347-.707-6.773-.906-9.93-.575-11.018-.971-10.475-3.809.524-2.746-1.286-3.225-4.754-1.259m-56.427 5.44C59.181 144.04 58.421 146 59.381 146c.21 0 1.583-1.575 3.051-3.5 1.468-1.925 2.23-3.5 1.691-3.5-.538 0-1.911 1.186-3.05 2.635m48.491-.928c-.542 1.425-.428 1.54.56.56.684-.679.991-1.486.683-1.793-.308-.308-.867.247-1.243 1.233m-29.22 1.839c-.896 2.335.259 10.469 1.675 11.791.987.922 1.077.436.434-2.337-.447-1.925-.776-5.187-.732-7.25.084-3.974-.4-4.749-1.377-2.204m93.051 5.31c-.104 6.607-.097 6.625 1.303 3.272.807-1.935 1.139-4.594.778-6.239-1.115-5.074-1.973-3.85-2.081 2.967m-44.145-4.181c-1.888 1.317-2.532 1.356-4 .245-1.489-1.126-1.563-1.114-.5.078 1.882 2.111 1.51 3.962-1 4.971-2.225.894-2.226.905-.107.968 1.179.034 2.427-.676 2.774-1.58.346-.904.917-1.357 1.267-1.006.351.35 1.147-.373 1.77-1.607.809-1.604 2.02-2.243 4.246-2.24 1.713.002 2.904-.335 2.648-.75-.777-1.256-4.708-.747-7.098.921m22.322.209c-.302.489.438 1.147 1.646 1.463 2.933.767 3.44.075.928-1.269-1.139-.61-2.265-.695-2.574-.194M87 150.532c0 1.56 2.914 7.154 4.345 8.34 2.39 1.983 2.158-.204-.529-4.986-1.888-3.358-3.816-5.053-3.816-3.354m128.073 2.103c-2.104 2.674-2.683 6.857-1.26 9.097.527.829 2.002-.618 4.509-4.426 2.801-4.253 3.41-5.859 2.452-6.467-2.167-1.375-3.549-.94-5.701 1.796m-51.104 2.427c-1.16 2.272-1.863 4.377-1.563 4.677.928.928 3.387-1.708 4.457-4.775 1.604-4.601-.534-4.529-2.894.098m-16.624-.519c-.326.849-.369 1.767-.096 2.04.274.273.737-.422 1.03-1.543.624-2.383-.069-2.751-.934-.497m-39.781.75c.376.986.935 1.541 1.243 1.233.308-.307.001-1.114-.683-1.793-.988-.98-1.102-.865-.56.56m78.436-.411c0 .55.45 1.278 1 1.618.55.34 1 .168 1-.382s-.45-1.278-1-1.618c-.55-.34-1-.168-1 .382M68.039 155c-1.135 2.949-.506 11.8.75 10.544.302-.301 1.317.147 2.255.996 1.562 1.414 1.748 1.329 2.194-1.007.395-2.067.229-2.336-.875-1.419-1.846 1.532-1.724-.154.212-2.917.866-1.237 1.375-2.799 1.131-3.473-.247-.682-1.016-.006-1.735 1.526-.711 1.512-1.895 2.75-2.632 2.75-1.746 0-1.73-1.636.022-2.308.749-.288 1.627-1.573 1.95-2.857.546-2.164.489-2.201-.774-.513-1.318 1.762-1.378 1.762-1.834 0-.259-1.002-.558-1.597-.664-1.322m17.331 4.489c.915 2.981 1.194 3.259 1.466 1.467.185-1.217-.323-2.872-1.13-3.679-1.289-1.289-1.33-1.021-.336 2.212m99.293-1.858c.38 1.028 1.17 2.188 1.756 2.577.735.489.684 1.089-.164 1.937-.972.972-1.461.562-2.34-1.958-.611-1.753-1.528-3.187-2.039-3.187-.51 0-.241 1.328.598 2.95 1.802 3.484 2.101 6.391.416 4.05-.897-1.248-.979-1.192-.484.332.327 1.007.608 2.357.624 3 .017.642.479.399 1.027-.54.548-.94 1.626-1.467 2.396-1.171 1.035.396 1.248-.048.817-1.698-.404-1.543-.226-2.014.572-1.52 2.177 1.345 1.136-1.891-1.373-4.272-2.062-1.955-2.377-2.042-1.806-.5m-59.399.087c1.52.229 3.77.223 5-.014 1.23-.237-.014-.425-2.764-.418-2.75.008-3.756.202-2.236.432m63.736.16c0 .482.749 1.495 1.664 2.25 1.508 1.244 1.552 1.162.465-.878-1.24-2.327-2.129-2.9-2.129-1.372m58 2.829c0 .526 2.025 1.419 4.5 1.986 3.634.831 4.5.768 4.5-.332 0-.748-.619-1.361-1.375-1.361s-2.781-.281-4.5-.625c-1.758-.352-3.125-.206-3.125.332M96.5 163c.34.55.816 1 1.059 1s.441-.45.441-1-.477-1-1.059-1-.781.45-.441 1m45.291 3.127c-2.18 6.54-5.402 8.373-14.715 8.373-8.841 0-10.405-.829-13.213-7-2.228-4.899-2.432-2.527-.316 3.683 1.953 5.732 4.249 6.817 14.435 6.817 11.493 0 12.409-.543 14.419-8.546 1.912-7.612 1.524-9.729-.61-3.327m-62.041-2.55c-1.856 1.872.022 9.423 2.344 9.423.565 0 .677-.56.25-1.25-.426-.687-1.015-2.978-1.309-5.09-.294-2.111-.873-3.499-1.285-3.083m95.02 3.072c-.268 1.568-.852 3.751-1.298 4.851-.8 1.973-.782 1.974 1.358.095 2.28-2.002 2.715-4.186 1.283-6.446-.618-.976-.992-.558-1.343 1.5M76.086 165.5c.104 1.894 1.77 5.084 1.828 3.5.031-.825-.381-2.175-.914-3-.533-.825-.945-1.05-.914-.5m41.339 1.943c-.337 1.344-.357 2.858-.044 3.364.312.506 4.851.92 10.084.92 10.17 0 12.255-.883 11.05-4.679-.649-2.046-2.515-2.876-2.515-1.119 0 2.338-3.288 3.993-7.784 3.917-5.382-.092-8.216-1.258-8.216-3.381 0-2.392-1.912-1.665-2.575.978m78.555 3.081c-.696.838-1.012 1.777-.704 2.086.309.309 1.064-.377 1.678-1.524 1.31-2.448.824-2.728-.974-.562M89 171.378c0 .207.787.995 1.75 1.75 1.586 1.243 1.621 1.208.378-.378-1.307-1.666-2.128-2.195-2.128-1.372m38.762 2.329c1.244.239 3.044.23 4-.02s-.062-.446-2.262-.435c-2.2.011-2.982.216-1.738.455m-29.835 4.265-2.573 2.893 2.823 2.477L101 185.82v17.685c0 14.976-.268 18.17-1.75 20.841-.963 1.735-2.128 3.431-2.59 3.769-1.058.774 3.961 5.885 5.778 5.885.742 0 1.607.675 1.924 1.5.642 1.673 5.638 2.089 5.638.469 0-.568.724-1.31 1.609-1.649 1.826-.701 6.919-5.213 6.298-5.58-.224-.132-1.307-.739-2.407-1.348-1.888-1.046-2.015-2.293-2.27-22.267l-.27-21.159 2.585-.983c1.422-.541 8.155-.983 14.963-.983 11.658 0 12.469.129 13.935 2.223 1.806 2.577 2.005 6.072.505 8.874-1.986 3.712-8.966 7.896-13.348 8.003-3.368.082-3.654.225-1.6.802 2.433.683 2.446.736.5 1.965-1.721 1.086-1.302 1.19 3 .747 9.083-.936 15.046-3.351 19.888-8.057 7.302-7.097 7.427-12.314.418-17.468-4.574-3.364-9.052-3.986-11.449-1.589-1.214 1.214-4.701 1.5-18.312 1.5-15.971 0-16.838-.1-17.335-2-.809-3.096-5.641-2.562-8.783.972m-49.927.66c0 1.477 4.174 7.221 5.663 7.792 2.125.816 2.259.592 1.625-2.712-.568-2.955-7.288-7.639-7.288-5.08m155.379.805c-2.317 1.008-3.239 2.158-3.577 4.461-.251 1.706-.118 3.102.294 3.102 1.336 0 6.904-6.111 6.904-7.577 0-1.682.276-1.683-3.621.014M165 189.5c1.703 2.475 3.555 4.5 4.116 4.5.915 0-.253-1.898-4.461-7.25-2.877-3.66-2.613-1.549.345 2.75m-48 15.248.5 11.752 10.345.286c8.078.223 10.254.004 9.928-1-.249-.766-3.338-1.66-7.633-2.211l-7.215-.924.287-8.076.288-8.075 5.599.246c4.524.198 5.946-.138 7.405-1.75 1.794-1.983 1.735-1.996-9.099-1.998l-10.905-.002.5 11.752M171 203c-.901.582-1.025.975-.309.985.655.008 1.469-.435 1.809-.985.767-1.242.421-1.242-1.5 0m-11.484 7.616c-1.101 1.68-1.266 2.467-.461 2.199.69-.23 1.62-1.407 2.067-2.616 1.085-2.932.486-2.776-1.606.417m-80.281 1.853c2.055 1.942 4.642 3.531 5.75 3.531 4.633 0-.107-5.544-5.485-6.415l-4-.648 3.735 3.532m95.008-2.745c-2.375.294-3.669 1.2-4.776 3.34-1.44 2.785-1.413 2.936.522 2.936 1.122 0 3.721-1.563 5.776-3.473 2.054-1.91 3.285-3.413 2.735-3.34-.55.073-2.466.315-4.257.537"/></svg>